<?xml version="1.0" standalone="no"?>
<!DOCTYPE svg PUBLIC "-//W3C//DTD SVG 1.0//EN" "http://www.w3.org/TR/2001/REC-SVG-20010904/DTD/svg10.dtd">
<svg xmlns="http://www.w3.org/2000/svg" xmlns:xlink="http://www.w3.org/1999/xlink" id="body_1" width="240" height="160">

<g transform="matrix(0.23477063 0 0 0.23477063 -0 0.079054534)">
	<g transform="matrix(1 0 0 1 296.98 64.867)">
        <path d="M-296.98 -64.867L725.31995 -64.867L725.31995 615.973L-296.98 615.973z" stroke="none" fill="#81D4FA" fill-rule="nonzero" />
        <path d="M-77.17 439.68L-8.806 439.68L-8.806 546.95996C -30.233 545.7499 -52.512 549.13336 -77.17 546.95996L-77.17 546.95996L-77.17 439.68z" stroke="none" fill="#4D4D4D" fill-rule="evenodd" />
        <path d="M-77.17 439.68L-8.806 439.68L-8.806 496.20398C -30.233 495.5664 -52.512 497.3491 -77.17 496.20398L-77.17 496.20398L-77.17 439.68z" stroke="none" fill="#333333" fill-rule="evenodd" />
        <path transform="matrix(-4.3711392E-08 -1 1 -4.3711392E-08 0 0)"  d="M-466.19 -216.38L-13.01001 -216.38L-13.01001 130.01999L-466.19 130.01999z" stroke="none" fill="#C5E1A5" fill-rule="nonzero" />
        <path transform="matrix(-4.3711392E-08 -1 1 -4.3711392E-08 0 0)"  d="M-466.19 -180.01L-13.01001 -180.01L-13.01001 93.65001L-466.19 93.65001z" stroke="none" fill="#FFFFFF" fill-rule="nonzero" />
		<g transform="matrix(1 0 0 1 -1.4374 0.30535)">
            <path d="M90.7683 26.379C 90.7683 27.682198 90.307556 28.794548 89.386055 29.71605C 88.464554 30.63755 87.3522 31.0983 86.049 31.098299C 84.745804 31.0983 83.63345 30.63755 82.71195 29.71605C 81.79045 28.794548 81.329704 27.682198 81.329704 26.379C 81.329704 25.075802 81.79045 23.963453 82.71195 23.04195C 83.63345 22.120451 84.745804 21.6597 86.049 21.6597C 87.3522 21.6597 88.464554 22.120451 89.386055 23.04195C 90.307556 23.963453 90.7683 25.075802 90.7683 26.379C 90.7683 26.433918 90.76735 26.48882 90.76543 26.543701" stroke="none" fill="#7986CB" fill-rule="nonzero" />
            <path d="M77.239296 26.379C 77.2393 27.682198 76.77855 28.794548 75.85705 29.71605C 74.93555 30.63755 73.8232 31.0983 72.52 31.098299C 71.2168 31.0983 70.10445 30.63755 69.182945 29.71605C 68.261444 28.794548 67.8007 27.682198 67.8007 26.379C 67.8007 25.075802 68.261444 23.963453 69.182945 23.04195C 70.10445 22.120451 71.2168 21.6597 72.52 21.6597C 73.8232 21.6597 74.93555 22.120451 75.85705 23.04195C 76.77855 23.963453 77.2393 25.075802 77.239296 26.379C 77.2393 26.433918 77.23834 26.48882 77.23642 26.543701" stroke="none" fill="#7986CB" fill-rule="nonzero" />
            <path d="M64.0253 26.379C 64.0253 27.682198 63.56455 28.794548 62.643047 29.71605C 61.72155 30.63755 60.6092 31.0983 59.306 31.098299C 58.0028 31.0983 56.890453 30.63755 55.968952 29.71605C 55.047455 28.794548 54.586704 27.682198 54.5867 26.379C 54.586704 25.075802 55.047455 23.963453 55.968952 23.04195C 56.890453 22.120451 58.0028 21.6597 59.306 21.6597C 60.6092 21.6597 61.72155 22.120451 62.643047 23.04195C 63.56455 23.963453 64.0253 25.075802 64.0253 26.379C 64.0253 26.433918 64.02434 26.48882 64.02242 26.543701" stroke="none" fill="#7986CB" fill-rule="nonzero" />
		</g>
        <path d="M-229.27 482.97L143.3 482.97L143.3 6.4299927L-229.27 6.4299927L-229.27 482.97zM-210.016 459.594L-210.016 26.303986L122.50398 26.303986L122.50398 460.314z" stroke="none" fill="#4D4D4D" fill-rule="evenodd" />
        <path d="M-147.71 553.66L61.73999 553.66C 62.87629 553.66 64.21519 553.2926 63.791092 552.90424L63.791092 552.90424L53.540092 543.52374C 53.11574 543.1354 48.78139 542.768 47.645294 542.768L47.645294 542.768L-133.6147 542.768C -134.751 542.768 -139.0851 543.1354 -139.5097 543.52374L-139.5097 543.52374L-149.76071 552.90424C -150.18524 553.2926 -148.84612 553.66 -147.71 553.66z" stroke="none" fill="#424242" fill-rule="evenodd" />
        <path d="M-163.58 41.953L-23.160004 41.953L-23.160004 53.017998L-163.58 53.017998z" stroke="none" fill="#FF8F00" fill-rule="nonzero" />
        <path d="M-156.03 85.371L-125.412 85.371L-125.412 91.7172L-156.03 91.7172z" stroke="none" fill="#26C6DA" fill-rule="nonzero" />
        <path transform="matrix(0.63338 0.34028 -0.25699 0.83865 -35.806 65.054)"  d="M-151.75 93.336C -151.97884 93.6136 -154.9902 93.304085 -155.3467 93.255775C -155.68834 93.20949 -158.56479 92.71924 -158.6855 92.39629C -158.81151 92.05931 -157.0377 89.606094 -156.8177 89.321495C -156.6068 89.04877 -154.744 86.802795 -154.404 86.859695C -154.04918 86.919075 -152.81151 89.68179 -152.67511 90.014694C -152.54437 90.33372 -151.53072 93.06989 -151.75003 93.33589L-151.75003 93.33589L-151.75 93.336z" stroke="none" fill="#26C6DA" fill-rule="nonzero" />
        <path transform="matrix(-0.63338 0.34028 0.25699 0.83865 -245.57 65.054)"  d="M-151.75 93.336C -151.97884 93.6136 -154.9902 93.304085 -155.3467 93.255775C -155.68834 93.20949 -158.56479 92.71924 -158.6855 92.39629C -158.81151 92.05931 -157.0377 89.606094 -156.8177 89.321495C -156.6068 89.04877 -154.744 86.802795 -154.404 86.859695C -154.04918 86.919075 -152.81151 89.68179 -152.67511 90.014694C -152.54437 90.33372 -151.53072 93.06989 -151.75003 93.33589L-151.75003 93.33589L-151.75 93.336z" stroke="none" fill="#26C6DA" fill-rule="nonzero" />
        <path d="M-139.04 97.641L-108.422 97.641L-108.422 103.9872L-139.04 103.9872z" stroke="none" fill="#26C6DA" fill-rule="nonzero" />
        <path transform="matrix(0.63338 0.34028 -0.25699 0.83865 -18.816 77.324)"  d="M-151.75 93.336C -151.97884 93.6136 -154.9902 93.304085 -155.3467 93.255775C -155.68834 93.20949 -158.56479 92.71924 -158.6855 92.39629C -158.81151 92.05931 -157.0377 89.606094 -156.8177 89.321495C -156.6068 89.04877 -154.744 86.802795 -154.404 86.859695C -154.04918 86.919075 -152.81151 89.68179 -152.67511 90.014694C -152.54437 90.33372 -151.53072 93.06989 -151.75003 93.33589L-151.75003 93.33589L-151.75 93.336z" stroke="none" fill="#26C6DA" fill-rule="nonzero" />
        <path transform="matrix(-0.63338 0.34028 0.25699 0.83865 -228.58 77.324)"  d="M-151.75 93.336C -151.97884 93.6136 -154.9902 93.304085 -155.3467 93.255775C -155.68834 93.20949 -158.56479 92.71924 -158.6855 92.39629C -158.81151 92.05931 -157.0377 89.606094 -156.8177 89.321495C -156.6068 89.04877 -154.744 86.802795 -154.404 86.859695C -154.04918 86.919075 -152.81151 89.68179 -152.67511 90.014694C -152.54437 90.33372 -151.53072 93.06989 -151.75003 93.33589L-151.75003 93.33589L-151.75 93.336z" stroke="none" fill="#26C6DA" fill-rule="nonzero" />
        <path d="M-125.83 109.28L-95.212006 109.28L-95.212006 115.6262L-125.83 115.6262z" stroke="none" fill="#26C6DA" fill-rule="nonzero" />
        <path transform="matrix(0.63338 0.34028 -0.25699 0.83865 -5.6022 88.965)"  d="M-151.75 93.336C -151.97884 93.6136 -154.9902 93.304085 -155.3467 93.255775C -155.68834 93.20949 -158.56479 92.71924 -158.6855 92.39629C -158.81151 92.05931 -157.0377 89.606094 -156.8177 89.321495C -156.6068 89.04877 -154.744 86.802795 -154.404 86.859695C -154.04918 86.919075 -152.81151 89.68179 -152.67511 90.014694C -152.54437 90.33372 -151.53072 93.06989 -151.75003 93.33589L-151.75003 93.33589L-151.75 93.336z" stroke="none" fill="#26C6DA" fill-rule="nonzero" />
        <path transform="matrix(-0.63338 0.34028 0.25699 0.83865 -215.37 88.965)"  d="M-151.75 93.336C -151.97884 93.6136 -154.9902 93.304085 -155.3467 93.255775C -155.68834 93.20949 -158.56479 92.71924 -158.6855 92.39629C -158.81151 92.05931 -157.0377 89.606094 -156.8177 89.321495C -156.6068 89.04877 -154.744 86.802795 -154.404 86.859695C -154.04918 86.919075 -152.81151 89.68179 -152.67511 90.014694C -152.54437 90.33372 -151.53072 93.06989 -151.75003 93.33589L-151.75003 93.33589L-151.75 93.336z" stroke="none" fill="#26C6DA" fill-rule="nonzero" />
        <path d="M-125.51 121.24L-94.892 121.24L-94.892 127.5862L-125.51 127.5862z" stroke="none" fill="#26C6DA" fill-rule="nonzero" />
        <path transform="matrix(0.63338 0.34028 -0.25699 0.83865 -5.2876 100.92)"  d="M-151.75 93.336C -151.97884 93.6136 -154.9902 93.304085 -155.3467 93.255775C -155.68834 93.20949 -158.56479 92.71924 -158.6855 92.39629C -158.81151 92.05931 -157.0377 89.606094 -156.8177 89.321495C -156.6068 89.04877 -154.744 86.802795 -154.404 86.859695C -154.04918 86.919075 -152.81151 89.68179 -152.67511 90.014694C -152.54437 90.33372 -151.53072 93.06989 -151.75003 93.33589L-151.75003 93.33589L-151.75 93.336z" stroke="none" fill="#26C6DA" fill-rule="nonzero" />
        <path transform="matrix(-0.63338 0.34028 0.25699 0.83865 -215.06 100.92)"  d="M-151.75 93.336C -151.97884 93.6136 -154.9902 93.304085 -155.3467 93.255775C -155.68834 93.20949 -158.56479 92.71924 -158.6855 92.39629C -158.81151 92.05931 -157.0377 89.606094 -156.8177 89.321495C -156.6068 89.04877 -154.744 86.802795 -154.404 86.859695C -154.04918 86.919075 -152.81151 89.68179 -152.67511 90.014694C -152.54437 90.33372 -151.53072 93.06989 -151.75003 93.33589L-151.75003 93.33589L-151.75 93.336z" stroke="none" fill="#26C6DA" fill-rule="nonzero" />
        <path d="M-125.2 132.88L-94.582 132.88L-94.582 139.22621L-125.2 139.22621z" stroke="none" fill="#26C6DA" fill-rule="nonzero" />
        <path transform="matrix(0.63338 0.34028 -0.25699 0.83865 -4.973 112.56)"  d="M-151.75 93.336C -151.97884 93.6136 -154.9902 93.304085 -155.3467 93.255775C -155.68834 93.20949 -158.56479 92.71924 -158.6855 92.39629C -158.81151 92.05931 -157.0377 89.606094 -156.8177 89.321495C -156.6068 89.04877 -154.744 86.802795 -154.404 86.859695C -154.04918 86.919075 -152.81151 89.68179 -152.67511 90.014694C -152.54437 90.33372 -151.53072 93.06989 -151.75003 93.33589L-151.75003 93.33589L-151.75 93.336z" stroke="none" fill="#26C6DA" fill-rule="nonzero" />
        <path transform="matrix(-0.63338 0.34028 0.25699 0.83865 -214.74 112.56)"  d="M-151.75 93.336C -151.97884 93.6136 -154.9902 93.304085 -155.3467 93.255775C -155.68834 93.20949 -158.56479 92.71924 -158.6855 92.39629C -158.81151 92.05931 -157.0377 89.606094 -156.8177 89.321495C -156.6068 89.04877 -154.744 86.802795 -154.404 86.859695C -154.04918 86.919075 -152.81151 89.68179 -152.67511 90.014694C -152.54437 90.33372 -151.53072 93.06989 -151.75003 93.33589L-151.75003 93.33589L-151.75 93.336z" stroke="none" fill="#26C6DA" fill-rule="nonzero" />
        <path d="M-125.2 144.83L-94.582 144.83L-94.582 151.17621L-125.2 151.17621z" stroke="none" fill="#26C6DA" fill-rule="nonzero" />
        <path transform="matrix(0.63338 0.34028 -0.25699 0.83865 -4.973 124.52)"  d="M-151.75 93.336C -151.97884 93.6136 -154.9902 93.304085 -155.3467 93.255775C -155.68834 93.20949 -158.56479 92.71924 -158.6855 92.39629C -158.81151 92.05931 -157.0377 89.606094 -156.8177 89.321495C -156.6068 89.04877 -154.744 86.802795 -154.404 86.859695C -154.04918 86.919075 -152.81151 89.68179 -152.67511 90.014694C -152.54437 90.33372 -151.53072 93.06989 -151.75003 93.33589L-151.75003 93.33589L-151.75 93.336z" stroke="none" fill="#26C6DA" fill-rule="nonzero" />
        <path transform="matrix(-0.63338 0.34028 0.25699 0.83865 -214.74 124.52)"  d="M-151.75 93.336C -151.97884 93.6136 -154.9902 93.304085 -155.3467 93.255775C -155.68834 93.20949 -158.56479 92.71924 -158.6855 92.39629C -158.81151 92.05931 -157.0377 89.606094 -156.8177 89.321495C -156.6068 89.04877 -154.744 86.802795 -154.404 86.859695C -154.04918 86.919075 -152.81151 89.68179 -152.67511 90.014694C -152.54437 90.33372 -151.53072 93.06989 -151.75003 93.33589L-151.75003 93.33589L-151.75 93.336z" stroke="none" fill="#26C6DA" fill-rule="nonzero" />
        <path d="M-125.2 186.99L-94.582 186.99L-94.582 193.33621L-125.2 193.33621z" stroke="none" fill="#26C6DA" fill-rule="nonzero" />
        <path transform="matrix(0.63338 0.34028 -0.25699 0.83865 -4.973 166.68)"  d="M-151.75 93.336C -151.97884 93.6136 -154.9902 93.304085 -155.3467 93.255775C -155.68834 93.20949 -158.56479 92.71924 -158.6855 92.39629C -158.81151 92.05931 -157.0377 89.606094 -156.8177 89.321495C -156.6068 89.04877 -154.744 86.802795 -154.404 86.859695C -154.04918 86.919075 -152.81151 89.68179 -152.67511 90.014694C -152.54437 90.33372 -151.53072 93.06989 -151.75003 93.33589L-151.75003 93.33589L-151.75 93.336z" stroke="none" fill="#26C6DA" fill-rule="nonzero" />
        <path transform="matrix(-0.63338 0.34028 0.25699 0.83865 -214.74 166.68)"  d="M-151.75 93.336C -151.97884 93.6136 -154.9902 93.304085 -155.3467 93.255775C -155.68834 93.20949 -158.56479 92.71924 -158.6855 92.39629C -158.81151 92.05931 -157.0377 89.606094 -156.8177 89.321495C -156.6068 89.04877 -154.744 86.802795 -154.404 86.859695C -154.04918 86.919075 -152.81151 89.68179 -152.67511 90.014694C -152.54437 90.33372 -151.53072 93.06989 -151.75003 93.33589L-151.75003 93.33589L-151.75 93.336z" stroke="none" fill="#26C6DA" fill-rule="nonzero" />
        <path d="M-123.94 198.95L-93.32201 198.95L-93.32201 205.2962L-123.94 205.2962z" stroke="none" fill="#26C6DA" fill-rule="nonzero" />
        <path transform="matrix(0.63338 0.34028 -0.25699 0.83865 -3.7145 178.63)"  d="M-151.75 93.336C -151.97884 93.6136 -154.9902 93.304085 -155.3467 93.255775C -155.68834 93.20949 -158.56479 92.71924 -158.6855 92.39629C -158.81151 92.05931 -157.0377 89.606094 -156.8177 89.321495C -156.6068 89.04877 -154.744 86.802795 -154.404 86.859695C -154.04918 86.919075 -152.81151 89.68179 -152.67511 90.014694C -152.54437 90.33372 -151.53072 93.06989 -151.75003 93.33589L-151.75003 93.33589L-151.75 93.336z" stroke="none" fill="#26C6DA" fill-rule="nonzero" />
        <path transform="matrix(-0.63338 0.34028 0.25699 0.83865 -213.48 178.63)"  d="M-151.75 93.336C -151.97884 93.6136 -154.9902 93.304085 -155.3467 93.255775C -155.68834 93.20949 -158.56479 92.71924 -158.6855 92.39629C -158.81151 92.05931 -157.0377 89.606094 -156.8177 89.321495C -156.6068 89.04877 -154.744 86.802795 -154.404 86.859695C -154.04918 86.919075 -152.81151 89.68179 -152.67511 90.014694C -152.54437 90.33372 -151.53072 93.06989 -151.75003 93.33589L-151.75003 93.33589L-151.75 93.336z" stroke="none" fill="#26C6DA" fill-rule="nonzero" />
        <path d="M-139.04 212.16L-108.422 212.16L-108.422 218.50621L-139.04 218.50621z" stroke="none" fill="#26C6DA" fill-rule="nonzero" />
        <path transform="matrix(0.63338 0.34028 -0.25699 0.83865 -18.816 191.85)"  d="M-151.75 93.336C -151.97884 93.6136 -154.9902 93.304085 -155.3467 93.255775C -155.68834 93.20949 -158.56479 92.71924 -158.6855 92.39629C -158.81151 92.05931 -157.0377 89.606094 -156.8177 89.321495C -156.6068 89.04877 -154.744 86.802795 -154.404 86.859695C -154.04918 86.919075 -152.81151 89.68179 -152.67511 90.014694C -152.54437 90.33372 -151.53072 93.06989 -151.75003 93.33589L-151.75003 93.33589L-151.75 93.336z" stroke="none" fill="#26C6DA" fill-rule="nonzero" />
        <path transform="matrix(-0.63338 0.34028 0.25699 0.83865 -228.58 191.85)"  d="M-151.75 93.336C -151.97884 93.6136 -154.9902 93.304085 -155.3467 93.255775C -155.68834 93.20949 -158.56479 92.71924 -158.6855 92.39629C -158.81151 92.05931 -157.0377 89.606094 -156.8177 89.321495C -156.6068 89.04877 -154.744 86.802795 -154.404 86.859695C -154.04918 86.919075 -152.81151 89.68179 -152.67511 90.014694C -152.54437 90.33372 -151.53072 93.06989 -151.75003 93.33589L-151.75003 93.33589L-151.75 93.336z" stroke="none" fill="#26C6DA" fill-rule="nonzero" />
        <path d="M-139.04 227.9L-108.422 227.9L-108.422 234.2462L-139.04 234.2462z" stroke="none" fill="#26C6DA" fill-rule="nonzero" />
        <path transform="matrix(0.63338 0.34028 -0.25699 0.83865 -18.816 207.58)"  d="M-151.75 93.336C -151.97884 93.6136 -154.9902 93.304085 -155.3467 93.255775C -155.68834 93.20949 -158.56479 92.71924 -158.6855 92.39629C -158.81151 92.05931 -157.0377 89.606094 -156.8177 89.321495C -156.6068 89.04877 -154.744 86.802795 -154.404 86.859695C -154.04918 86.919075 -152.81151 89.68179 -152.67511 90.014694C -152.54437 90.33372 -151.53072 93.06989 -151.75003 93.33589L-151.75003 93.33589L-151.75 93.336z" stroke="none" fill="#26C6DA" fill-rule="nonzero" />
        <path transform="matrix(-0.63338 0.34028 0.25699 0.83865 -228.58 207.58)"  d="M-151.75 93.336C -151.97884 93.6136 -154.9902 93.304085 -155.3467 93.255775C -155.68834 93.20949 -158.56479 92.71924 -158.6855 92.39629C -158.81151 92.05931 -157.0377 89.606094 -156.8177 89.321495C -156.6068 89.04877 -154.744 86.802795 -154.404 86.859695C -154.04918 86.919075 -152.81151 89.68179 -152.67511 90.014694C -152.54437 90.33372 -151.53072 93.06989 -151.75003 93.33589L-151.75003 93.33589L-151.75 93.336z" stroke="none" fill="#26C6DA" fill-rule="nonzero" />
        <path d="M-82.482 144.83L64.178 144.83L64.178 151.17621L-82.482 151.17621z" stroke="none" fill="#CCCCCC" fill-rule="nonzero" />
        <path transform="matrix(0.63338 0.34028 -0.25699 0.83865 37.742 124.52)"  d="M-151.75 93.336C -151.97884 93.6136 -154.9902 93.304085 -155.3467 93.255775C -155.68834 93.20949 -158.56479 92.71924 -158.6855 92.39629C -158.81151 92.05931 -157.0377 89.606094 -156.8177 89.321495C -156.6068 89.04877 -154.744 86.802795 -154.404 86.859695C -154.04918 86.919075 -152.81151 89.68179 -152.67511 90.014694C -152.54437 90.33372 -151.53072 93.06989 -151.75003 93.33589L-151.75003 93.33589L-151.75 93.336z" stroke="none" fill="#CCCCCC" fill-rule="nonzero" />
        <path transform="matrix(-0.63338 0.34028 0.25699 0.83865 -56.246 124.52)"  d="M-151.75 93.336C -151.97884 93.6136 -154.9902 93.304085 -155.3467 93.255775C -155.68834 93.20949 -158.56479 92.71924 -158.6855 92.39629C -158.81151 92.05931 -157.0377 89.606094 -156.8177 89.321495C -156.6068 89.04877 -154.744 86.802795 -154.404 86.859695C -154.04918 86.919075 -152.81151 89.68179 -152.67511 90.014694C -152.54437 90.33372 -151.53072 93.06989 -151.75003 93.33589L-151.75003 93.33589L-151.75 93.336z" stroke="none" fill="#CCCCCC" fill-rule="nonzero" />
        <path d="M-124.45 156.16L63.910004 156.16L63.910004 162.50621L-124.45 162.50621z" stroke="none" fill="#CCCCCC" fill-rule="nonzero" />
        <path transform="matrix(0.81264 0.34028 -0.32973 0.83865 29.805 135.84)"  d="M-151.75 93.336C -151.97884 93.6136 -154.9902 93.304085 -155.3467 93.255775C -155.68834 93.20949 -158.56479 92.71924 -158.6855 92.39629C -158.81151 92.05931 -157.0377 89.606094 -156.8177 89.321495C -156.6068 89.04877 -154.744 86.802795 -154.404 86.859695C -154.04918 86.919075 -152.81151 89.68179 -152.67511 90.014694C -152.54437 90.33372 -151.53072 93.06989 -151.75003 93.33589L-151.75003 93.33589L-151.75 93.336z" stroke="none" fill="#CCCCCC" fill-rule="nonzero" />
        <path transform="matrix(-0.81264 0.34028 0.32973 0.83865 -90.784 135.84)"  d="M-151.75 93.336C -151.97884 93.6136 -154.9902 93.304085 -155.3467 93.255775C -155.68834 93.20949 -158.56479 92.71924 -158.6855 92.39629C -158.81151 92.05931 -157.0377 89.606094 -156.8177 89.321495C -156.6068 89.04877 -154.744 86.802795 -154.404 86.859695C -154.04918 86.919075 -152.81151 89.68179 -152.67511 90.014694C -152.54437 90.33372 -151.53072 93.06989 -151.75003 93.33589L-151.75003 93.33589L-151.75 93.336z" stroke="none" fill="#CCCCCC" fill-rule="nonzero" />
        <path d="M-124.45 166.86L63.910004 166.86L63.910004 173.2062L-124.45 173.2062z" stroke="none" fill="#CCCCCC" fill-rule="nonzero" />
        <path transform="matrix(0.81264 0.34028 -0.32973 0.83865 29.805 146.54)"  d="M-151.75 93.336C -151.97884 93.6136 -154.9902 93.304085 -155.3467 93.255775C -155.68834 93.20949 -158.56479 92.71924 -158.6855 92.39629C -158.81151 92.05931 -157.0377 89.606094 -156.8177 89.321495C -156.6068 89.04877 -154.744 86.802795 -154.404 86.859695C -154.04918 86.919075 -152.81151 89.68179 -152.67511 90.014694C -152.54437 90.33372 -151.53072 93.06989 -151.75003 93.33589L-151.75003 93.33589L-151.75 93.336z" stroke="none" fill="#CCCCCC" fill-rule="nonzero" />
        <path transform="matrix(-0.81264 0.34028 0.32973 0.83865 -90.784 146.54)"  d="M-151.75 93.336C -151.97884 93.6136 -154.9902 93.304085 -155.3467 93.255775C -155.68834 93.20949 -158.56479 92.71924 -158.6855 92.39629C -158.81151 92.05931 -157.0377 89.606094 -156.8177 89.321495C -156.6068 89.04877 -154.744 86.802795 -154.404 86.859695C -154.04918 86.919075 -152.81151 89.68179 -152.67511 90.014694C -152.54437 90.33372 -151.53072 93.06989 -151.75003 93.33589L-151.75003 93.33589L-151.75 93.336z" stroke="none" fill="#CCCCCC" fill-rule="nonzero" />
        <path d="M-125.04 176.61L41.799995 176.61L41.799995 182.9562L-125.04 182.9562z" stroke="none" fill="#CCCCCC" fill-rule="nonzero" />
        <path transform="matrix(0.71978 0.34028 -0.29205 0.83865 11.589 156.29)"  d="M-151.75 93.336C -151.97884 93.6136 -154.9902 93.304085 -155.3467 93.255775C -155.68834 93.20949 -158.56479 92.71924 -158.6855 92.39629C -158.81151 92.05931 -157.0377 89.606094 -156.8177 89.321495C -156.6068 89.04877 -154.744 86.802795 -154.404 86.859695C -154.04918 86.919075 -152.81151 89.68179 -152.67511 90.014694C -152.54437 90.33372 -151.53072 93.06989 -151.75003 93.33589L-151.75003 93.33589L-151.75 93.336z" stroke="none" fill="#CCCCCC" fill-rule="nonzero" />
        <path transform="matrix(-0.71978 0.34028 0.29205 0.83865 -95.221 156.29)"  d="M-151.75 93.336C -151.97884 93.6136 -154.9902 93.304085 -155.3467 93.255775C -155.68834 93.20949 -158.56479 92.71924 -158.6855 92.39629C -158.81151 92.05931 -157.0377 89.606094 -156.8177 89.321495C -156.6068 89.04877 -154.744 86.802795 -154.404 86.859695C -154.04918 86.919075 -152.81151 89.68179 -152.67511 90.014694C -152.54437 90.33372 -151.53072 93.06989 -151.75003 93.33589L-151.75003 93.33589L-151.75 93.336z" stroke="none" fill="#CCCCCC" fill-rule="nonzero" />
        <path d="M-81.778 120.92L-51.16 120.92L-51.16 127.2662L-81.778 127.2662z" stroke="none" fill="#FF7043" fill-rule="nonzero" />
        <path transform="matrix(0.63338 0.34028 -0.25699 0.83865 38.445 100.61)"  d="M-151.75 93.336C -151.97884 93.6136 -154.9902 93.304085 -155.3467 93.255775C -155.68834 93.20949 -158.56479 92.71924 -158.6855 92.39629C -158.81151 92.05931 -157.0377 89.606094 -156.8177 89.321495C -156.6068 89.04877 -154.744 86.802795 -154.404 86.859695C -154.04918 86.919075 -152.81151 89.68179 -152.67511 90.014694C -152.54437 90.33372 -151.53072 93.06989 -151.75003 93.33589L-151.75003 93.33589L-151.75 93.336z" stroke="none" fill="#FF7043" fill-rule="nonzero" />
        <path transform="matrix(-0.63338 0.34028 0.25699 0.83865 -171.32 100.61)"  d="M-151.75 93.336C -151.97884 93.6136 -154.9902 93.304085 -155.3467 93.255775C -155.68834 93.20949 -158.56479 92.71924 -158.6855 92.39629C -158.81151 92.05931 -157.0377 89.606094 -156.8177 89.321495C -156.6068 89.04877 -154.744 86.802795 -154.404 86.859695C -154.04918 86.919075 -152.81151 89.68179 -152.67511 90.014694C -152.54437 90.33372 -151.53072 93.06989 -151.75003 93.33589L-151.75003 93.33589L-151.75 93.336z" stroke="none" fill="#FF7043" fill-rule="nonzero" />
        <path d="M-5.3252 120.92L25.2928 120.92L25.2928 127.2662L-5.3252 127.2662z" stroke="none" fill="#FF7043" fill-rule="nonzero" />
        <path transform="matrix(0.63338 0.34028 -0.25699 0.83865 114.9 100.61)"  d="M-151.75 93.336C -151.97884 93.6136 -154.9902 93.304085 -155.3467 93.255775C -155.68834 93.20949 -158.56479 92.71924 -158.6855 92.39629C -158.81151 92.05931 -157.0377 89.606094 -156.8177 89.321495C -156.6068 89.04877 -154.744 86.802795 -154.404 86.859695C -154.04918 86.919075 -152.81151 89.68179 -152.67511 90.014694C -152.54437 90.33372 -151.53072 93.06989 -151.75003 93.33589L-151.75003 93.33589L-151.75 93.336z" stroke="none" fill="#FF7043" fill-rule="nonzero" />
        <path transform="matrix(-0.63338 0.34028 0.25699 0.83865 -94.87 100.61)"  d="M-151.75 93.336C -151.97884 93.6136 -154.9902 93.304085 -155.3467 93.255775C -155.68834 93.20949 -158.56479 92.71924 -158.6855 92.39629C -158.81151 92.05931 -157.0377 89.606094 -156.8177 89.321495C -156.6068 89.04877 -154.744 86.802795 -154.404 86.859695C -154.04918 86.919075 -152.81151 89.68179 -152.67511 90.014694C -152.54437 90.33372 -151.53072 93.06989 -151.75003 93.33589L-151.75003 93.33589L-151.75 93.336z" stroke="none" fill="#FF7043" fill-rule="nonzero" />
        <path d="M35.576 120.92L66.194 120.92L66.194 127.2662L35.576 127.2662z" stroke="none" fill="#26C6DA" fill-rule="nonzero" />
        <path transform="matrix(0.63338 0.34028 -0.25699 0.83865 155.8 100.61)"  d="M-151.75 93.336C -151.97884 93.6136 -154.9902 93.304085 -155.3467 93.255775C -155.68834 93.20949 -158.56479 92.71924 -158.6855 92.39629C -158.81151 92.05931 -157.0377 89.606094 -156.8177 89.321495C -156.6068 89.04877 -154.744 86.802795 -154.404 86.859695C -154.04918 86.919075 -152.81151 89.68179 -152.67511 90.014694C -152.54437 90.33372 -151.53072 93.06989 -151.75003 93.33589L-151.75003 93.33589L-151.75 93.336z" stroke="none" fill="#26C6DA" fill-rule="nonzero" />
        <path transform="matrix(-0.63338 0.34028 0.25699 0.83865 -53.97 100.61)"  d="M-151.75 93.336C -151.97884 93.6136 -154.9902 93.304085 -155.3467 93.255775C -155.68834 93.20949 -158.56479 92.71924 -158.6855 92.39629C -158.81151 92.05931 -157.0377 89.606094 -156.8177 89.321495C -156.6068 89.04877 -154.744 86.802795 -154.404 86.859695C -154.04918 86.919075 -152.81151 89.68179 -152.67511 90.014694C -152.54437 90.33372 -151.53072 93.06989 -151.75003 93.33589L-151.75003 93.33589L-151.75 93.336z" stroke="none" fill="#26C6DA" fill-rule="nonzero" />
        <path d="M-40.588 120.92L-14.944002 120.92L-14.944002 127.2662L-40.588 127.2662z" stroke="none" fill="#CCCCCC" fill-rule="nonzero" />
        <path transform="matrix(0.53048 0.34028 -0.21524 0.83865 60.104 100.61)"  d="M-151.75 93.336C -151.97884 93.6136 -154.9902 93.304085 -155.3467 93.255775C -155.68834 93.20949 -158.56479 92.71924 -158.6855 92.39629C -158.81151 92.05931 -157.0377 89.606094 -156.8177 89.321495C -156.6068 89.04877 -154.744 86.802795 -154.404 86.859695C -154.04918 86.919075 -152.81151 89.68179 -152.67511 90.014694C -152.54437 90.33372 -151.53072 93.06989 -151.75003 93.33589L-151.75003 93.33589L-151.75 93.336z" stroke="none" fill="#CCCCCC" fill-rule="nonzero" />
        <path transform="matrix(-0.53048 0.34028 0.21524 0.83865 -115.59 100.61)"  d="M-151.75 93.336C -151.97884 93.6136 -154.9902 93.304085 -155.3467 93.255775C -155.68834 93.20949 -158.56479 92.71924 -158.6855 92.39629C -158.81151 92.05931 -157.0377 89.606094 -156.8177 89.321495C -156.6068 89.04877 -154.744 86.802795 -154.404 86.859695C -154.04918 86.919075 -152.81151 89.68179 -152.67511 90.014694C -152.54437 90.33372 -151.53072 93.06989 -151.75003 93.33589L-151.75003 93.33589L-151.75 93.336z" stroke="none" fill="#CCCCCC" fill-rule="nonzero" />
        <path d="M-95.936 212.16L-45.653996 212.16L-45.653996 218.50621L-95.936 218.50621z" stroke="none" fill="#FF7043" fill-rule="nonzero" />
        <path transform="matrix(0.63338 0.34028 -0.25699 0.83865 24.287 191.85)"  d="M-151.75 93.336C -151.97884 93.6136 -154.9902 93.304085 -155.3467 93.255775C -155.68834 93.20949 -158.56479 92.71924 -158.6855 92.39629C -158.81151 92.05931 -157.0377 89.606094 -156.8177 89.321495C -156.6068 89.04877 -154.744 86.802795 -154.404 86.859695C -154.04918 86.919075 -152.81151 89.68179 -152.67511 90.014694C -152.54437 90.33372 -151.53072 93.06989 -151.75003 93.33589L-151.75003 93.33589L-151.75 93.336z" stroke="none" fill="#FF7043" fill-rule="nonzero" />
        <path transform="matrix(-0.63338 0.34028 0.25699 0.83865 -165.98 191.85)"  d="M-151.75 93.336C -151.97884 93.6136 -154.9902 93.304085 -155.3467 93.255775C -155.68834 93.20949 -158.56479 92.71924 -158.6855 92.39629C -158.81151 92.05931 -157.0377 89.606094 -156.8177 89.321495C -156.6068 89.04877 -154.744 86.802795 -154.404 86.859695C -154.04918 86.919075 -152.81151 89.68179 -152.67511 90.014694C -152.54437 90.33372 -151.53072 93.06989 -151.75003 93.33589L-151.75003 93.33589L-151.75 93.336z" stroke="none" fill="#FF7043" fill-rule="nonzero" />
        <path d="M-95.464 227.27L-45.181995 227.27L-45.181995 233.61621L-95.464 233.61621z" stroke="none" fill="#FF7043" fill-rule="nonzero" />
        <path transform="matrix(0.63338 0.34028 -0.25699 0.83865 24.759 206.95)"  d="M-151.75 93.336C -151.97884 93.6136 -154.9902 93.304085 -155.3467 93.255775C -155.68834 93.20949 -158.56479 92.71924 -158.6855 92.39629C -158.81151 92.05931 -157.0377 89.606094 -156.8177 89.321495C -156.6068 89.04877 -154.744 86.802795 -154.404 86.859695C -154.04918 86.919075 -152.81151 89.68179 -152.67511 90.014694C -152.54437 90.33372 -151.53072 93.06989 -151.75003 93.33589L-151.75003 93.33589L-151.75 93.336z" stroke="none" fill="#FF7043" fill-rule="nonzero" />
        <path transform="matrix(-0.63338 0.34028 0.25699 0.83865 -165.5 206.95)"  d="M-151.75 93.336C -151.97884 93.6136 -154.9902 93.304085 -155.3467 93.255775C -155.68834 93.20949 -158.56479 92.71924 -158.6855 92.39629C -158.81151 92.05931 -157.0377 89.606094 -156.8177 89.321495C -156.6068 89.04877 -154.744 86.802795 -154.404 86.859695C -154.04918 86.919075 -152.81151 89.68179 -152.67511 90.014694C -152.54437 90.33372 -151.53072 93.06989 -151.75003 93.33589L-151.75003 93.33589L-151.75 93.336z" stroke="none" fill="#FF7043" fill-rule="nonzero" />
        <path d="M-123.94 242.05L-93.32201 242.05L-93.32201 248.39621L-123.94 248.39621z" stroke="none" fill="#26C6DA" fill-rule="nonzero" />
        <path transform="matrix(0.63338 0.34028 -0.25699 0.83865 -3.7145 221.74)"  d="M-151.75 93.336C -151.97884 93.6136 -154.9902 93.304085 -155.3467 93.255775C -155.68834 93.20949 -158.56479 92.71924 -158.6855 92.39629C -158.81151 92.05931 -157.0377 89.606094 -156.8177 89.321495C -156.6068 89.04877 -154.744 86.802795 -154.404 86.859695C -154.04918 86.919075 -152.81151 89.68179 -152.67511 90.014694C -152.54437 90.33372 -151.53072 93.06989 -151.75003 93.33589L-151.75003 93.33589L-151.75 93.336z" stroke="none" fill="#26C6DA" fill-rule="nonzero" />
        <path transform="matrix(-0.63338 0.34028 0.25699 0.83865 -213.48 221.74)"  d="M-151.75 93.336C -151.97884 93.6136 -154.9902 93.304085 -155.3467 93.255775C -155.68834 93.20949 -158.56479 92.71924 -158.6855 92.39629C -158.81151 92.05931 -157.0377 89.606094 -156.8177 89.321495C -156.6068 89.04877 -154.744 86.802795 -154.404 86.859695C -154.04918 86.919075 -152.81151 89.68179 -152.67511 90.014694C -152.54437 90.33372 -151.53072 93.06989 -151.75003 93.33589L-151.75003 93.33589L-151.75 93.336z" stroke="none" fill="#26C6DA" fill-rule="nonzero" />
        <path d="M-80.363 241.42L-0.04699707 241.42L-0.04699707 247.7662L-80.363 247.7662z" stroke="none" fill="#FF7043" fill-rule="nonzero" />
        <path transform="matrix(0.63338 0.34028 -0.25699 0.83865 39.861 221.11)"  d="M-151.75 93.336C -151.97884 93.6136 -154.9902 93.304085 -155.3467 93.255775C -155.68834 93.20949 -158.56479 92.71924 -158.6855 92.39629C -158.81151 92.05931 -157.0377 89.606094 -156.8177 89.321495C -156.6068 89.04877 -154.744 86.802795 -154.404 86.859695C -154.04918 86.919075 -152.81151 89.68179 -152.67511 90.014694C -152.54437 90.33372 -151.53072 93.06989 -151.75003 93.33589L-151.75003 93.33589L-151.75 93.336z" stroke="none" fill="#FF7043" fill-rule="nonzero" />
        <path transform="matrix(-0.63338 0.34028 0.25699 0.83865 -120.81 221.11)"  d="M-151.75 93.336C -151.97884 93.6136 -154.9902 93.304085 -155.3467 93.255775C -155.68834 93.20949 -158.56479 92.71924 -158.6855 92.39629C -158.81151 92.05931 -157.0377 89.606094 -156.8177 89.321495C -156.6068 89.04877 -154.744 86.802795 -154.404 86.859695C -154.04918 86.919075 -152.81151 89.68179 -152.67511 90.014694C -152.54437 90.33372 -151.53072 93.06989 -151.75003 93.33589L-151.75003 93.33589L-151.75 93.336z" stroke="none" fill="#FF7043" fill-rule="nonzero" />
        <path d="M-123.94 254.01L-93.32201 254.01L-93.32201 260.3562L-123.94 260.3562z" stroke="none" fill="#26C6DA" fill-rule="nonzero" />
        <path transform="matrix(0.63338 0.34028 -0.25699 0.83865 -3.7145 233.69)"  d="M-151.75 93.336C -151.97884 93.6136 -154.9902 93.304085 -155.3467 93.255775C -155.68834 93.20949 -158.56479 92.71924 -158.6855 92.39629C -158.81151 92.05931 -157.0377 89.606094 -156.8177 89.321495C -156.6068 89.04877 -154.744 86.802795 -154.404 86.859695C -154.04918 86.919075 -152.81151 89.68179 -152.67511 90.014694C -152.54437 90.33372 -151.53072 93.06989 -151.75003 93.33589L-151.75003 93.33589L-151.75 93.336z" stroke="none" fill="#26C6DA" fill-rule="nonzero" />
        <path transform="matrix(-0.63338 0.34028 0.25699 0.83865 -213.48 233.69)"  d="M-151.75 93.336C -151.97884 93.6136 -154.9902 93.304085 -155.3467 93.255775C -155.68834 93.20949 -158.56479 92.71924 -158.6855 92.39629C -158.81151 92.05931 -157.0377 89.606094 -156.8177 89.321495C -156.6068 89.04877 -154.744 86.802795 -154.404 86.859695C -154.04918 86.919075 -152.81151 89.68179 -152.67511 90.014694C -152.54437 90.33372 -151.53072 93.06989 -151.75003 93.33589L-151.75003 93.33589L-151.75 93.336z" stroke="none" fill="#26C6DA" fill-rule="nonzero" />
        <path d="M-163.58 57.971L-48.520004 57.971L-48.520004 61.4725L-163.58 61.4725z" stroke="none" fill="#FF8F00" fill-rule="nonzero" />
        <path transform="matrix(-4.3711392E-08 -1 1 -4.3711392E-08 0 0)"  d="M-71.964 -180.01L-69.6384 -180.01L-69.6384 93.65001L-71.964 93.65001z" stroke="none" fill="#2196F3" fill-rule="nonzero" />
        <path d="M-33.798 211.85L46.518 211.85L46.518 218.19621L-33.798 218.19621z" stroke="none" fill="#CCCCCC" fill-rule="nonzero" />
        <path transform="matrix(0.63338 0.34028 -0.25699 0.83865 86.425 191.53)"  d="M-151.75 93.336C -151.97884 93.6136 -154.9902 93.304085 -155.3467 93.255775C -155.68834 93.20949 -158.56479 92.71924 -158.6855 92.39629C -158.81151 92.05931 -157.0377 89.606094 -156.8177 89.321495C -156.6068 89.04877 -154.744 86.802795 -154.404 86.859695C -154.04918 86.919075 -152.81151 89.68179 -152.67511 90.014694C -152.54437 90.33372 -151.53072 93.06989 -151.75003 93.33589L-151.75003 93.33589L-151.75 93.336z" stroke="none" fill="#CCCCCC" fill-rule="nonzero" />
        <path transform="matrix(-0.63338 0.34028 0.25699 0.83865 -74.248 191.53)"  d="M-151.75 93.336C -151.97884 93.6136 -154.9902 93.304085 -155.3467 93.255775C -155.68834 93.20949 -158.56479 92.71924 -158.6855 92.39629C -158.81151 92.05931 -157.0377 89.606094 -156.8177 89.321495C -156.6068 89.04877 -154.744 86.802795 -154.404 86.859695C -154.04918 86.919075 -152.81151 89.68179 -152.67511 90.014694C -152.54437 90.33372 -151.53072 93.06989 -151.75003 93.33589L-151.75003 93.33589L-151.75 93.336z" stroke="none" fill="#CCCCCC" fill-rule="nonzero" />
        <path d="M-32.54 226.32L47.776 226.32L47.776 232.66621L-32.54 232.66621z" stroke="none" fill="#CCCCCC" fill-rule="nonzero" />
        <path transform="matrix(0.63338 0.34028 -0.25699 0.83865 87.683 206)"  d="M-151.75 93.336C -151.97884 93.6136 -154.9902 93.304085 -155.3467 93.255775C -155.68834 93.20949 -158.56479 92.71924 -158.6855 92.39629C -158.81151 92.05931 -157.0377 89.606094 -156.8177 89.321495C -156.6068 89.04877 -154.744 86.802795 -154.404 86.859695C -154.04918 86.919075 -152.81151 89.68179 -152.67511 90.014694C -152.54437 90.33372 -151.53072 93.06989 -151.75003 93.33589L-151.75003 93.33589L-151.75 93.336z" stroke="none" fill="#CCCCCC" fill-rule="nonzero" />
        <path transform="matrix(-0.63338 0.34028 0.25699 0.83865 -72.99 206)"  d="M-151.75 93.336C -151.97884 93.6136 -154.9902 93.304085 -155.3467 93.255775C -155.68834 93.20949 -158.56479 92.71924 -158.6855 92.39629C -158.81151 92.05931 -157.0377 89.606094 -156.8177 89.321495C -156.6068 89.04877 -154.744 86.802795 -154.404 86.859695C -154.04918 86.919075 -152.81151 89.68179 -152.67511 90.014694C -152.54437 90.33372 -151.53072 93.06989 -151.75003 93.33589L-151.75003 93.33589L-151.75 93.336z" stroke="none" fill="#CCCCCC" fill-rule="nonzero" />
        <path d="M11.979 242.05L42.597 242.05L42.597 248.39621L11.979 248.39621z" stroke="none" fill="#CCCCCC" fill-rule="nonzero" />
        <path transform="matrix(0.63338 0.34028 -0.25699 0.83865 132.2 221.74)"  d="M-151.75 93.336C -151.97884 93.6136 -154.9902 93.304085 -155.3467 93.255775C -155.68834 93.20949 -158.56479 92.71924 -158.6855 92.39629C -158.81151 92.05931 -157.0377 89.606094 -156.8177 89.321495C -156.6068 89.04877 -154.744 86.802795 -154.404 86.859695C -154.04918 86.919075 -152.81151 89.68179 -152.67511 90.014694C -152.54437 90.33372 -151.53072 93.06989 -151.75003 93.33589L-151.75003 93.33589L-151.75 93.336z" stroke="none" fill="#CCCCCC" fill-rule="nonzero" />
        <path transform="matrix(-0.63338 0.34028 0.25699 0.83865 -77.566 221.74)"  d="M-151.75 93.336C -151.97884 93.6136 -154.9902 93.304085 -155.3467 93.255775C -155.68834 93.20949 -158.56479 92.71924 -158.6855 92.39629C -158.81151 92.05931 -157.0377 89.606094 -156.8177 89.321495C -156.6068 89.04877 -154.744 86.802795 -154.404 86.859695C -154.04918 86.919075 -152.81151 89.68179 -152.67511 90.014694C -152.54437 90.33372 -151.53072 93.06989 -151.75003 93.33589L-151.75003 93.33589L-151.75 93.336z" stroke="none" fill="#CCCCCC" fill-rule="nonzero" />
        <path d="M-79.45 254.32L63.03 254.32L63.03 260.6662L-79.45 260.6662z" stroke="none" fill="#CCCCCC" fill-rule="nonzero" />
        <path transform="matrix(0.61532 0.34028 -0.24966 0.83865 37.346 234.01)"  d="M-151.75 93.336C -151.97884 93.6136 -154.9902 93.304085 -155.3467 93.255775C -155.68834 93.20949 -158.56479 92.71924 -158.6855 92.39629C -158.81151 92.05931 -157.0377 89.606094 -156.8177 89.321495C -156.6068 89.04877 -154.744 86.802795 -154.404 86.859695C -154.04918 86.919075 -152.81151 89.68179 -152.67511 90.014694C -152.54437 90.33372 -151.53072 93.06989 -151.75003 93.33589L-151.75003 93.33589L-151.75 93.336z" stroke="none" fill="#CCCCCC" fill-rule="nonzero" />
        <path transform="matrix(-0.61532 0.34028 0.24966 0.83865 -53.962 234.01)"  d="M-151.75 93.336C -151.97884 93.6136 -154.9902 93.304085 -155.3467 93.255775C -155.68834 93.20949 -158.56479 92.71924 -158.6855 92.39629C -158.81151 92.05931 -157.0377 89.606094 -156.8177 89.321495C -156.6068 89.04877 -154.744 86.802795 -154.404 86.859695C -154.04918 86.919075 -152.81151 89.68179 -152.67511 90.014694C -152.54437 90.33372 -151.53072 93.06989 -151.75003 93.33589L-151.75003 93.33589L-151.75 93.336z" stroke="none" fill="#CCCCCC" fill-rule="nonzero" />
        <path d="M-122.58 267.78L-91.962006 267.78L-91.962006 274.1262L-122.58 274.1262z" stroke="none" fill="#26C6DA" fill-rule="nonzero" />
        <path transform="matrix(0.63338 0.34028 -0.25699 0.83865 -2.3535 247.46)"  d="M-151.75 93.336C -151.97884 93.6136 -154.9902 93.304085 -155.3467 93.255775C -155.68834 93.20949 -158.56479 92.71924 -158.6855 92.39629C -158.81151 92.05931 -157.0377 89.606094 -156.8177 89.321495C -156.6068 89.04877 -154.744 86.802795 -154.404 86.859695C -154.04918 86.919075 -152.81151 89.68179 -152.67511 90.014694C -152.54437 90.33372 -151.53072 93.06989 -151.75003 93.33589L-151.75003 93.33589L-151.75 93.336z" stroke="none" fill="#26C6DA" fill-rule="nonzero" />
        <path transform="matrix(-0.63338 0.34028 0.25699 0.83865 -212.12 247.46)"  d="M-151.75 93.336C -151.97884 93.6136 -154.9902 93.304085 -155.3467 93.255775C -155.68834 93.20949 -158.56479 92.71924 -158.6855 92.39629C -158.81151 92.05931 -157.0377 89.606094 -156.8177 89.321495C -156.6068 89.04877 -154.744 86.802795 -154.404 86.859695C -154.04918 86.919075 -152.81151 89.68179 -152.67511 90.014694C -152.54437 90.33372 -151.53072 93.06989 -151.75003 93.33589L-151.75003 93.33589L-151.75 93.336z" stroke="none" fill="#26C6DA" fill-rule="nonzero" />
        <path d="M-122.58 283.51L-91.962006 283.51L-91.962006 289.8562L-122.58 289.8562z" stroke="none" fill="#26C6DA" fill-rule="nonzero" />
        <path transform="matrix(0.63338 0.34028 -0.25699 0.83865 -2.3535 263.2)"  d="M-151.75 93.336C -151.97884 93.6136 -154.9902 93.304085 -155.3467 93.255775C -155.68834 93.20949 -158.56479 92.71924 -158.6855 92.39629C -158.81151 92.05931 -157.0377 89.606094 -156.8177 89.321495C -156.6068 89.04877 -154.744 86.802795 -154.404 86.859695C -154.04918 86.919075 -152.81151 89.68179 -152.67511 90.014694C -152.54437 90.33372 -151.53072 93.06989 -151.75003 93.33589L-151.75003 93.33589L-151.75 93.336z" stroke="none" fill="#26C6DA" fill-rule="nonzero" />
        <path transform="matrix(-0.63338 0.34028 0.25699 0.83865 -212.12 263.2)"  d="M-151.75 93.336C -151.97884 93.6136 -154.9902 93.304085 -155.3467 93.255775C -155.68834 93.20949 -158.56479 92.71924 -158.6855 92.39629C -158.81151 92.05931 -157.0377 89.606094 -156.8177 89.321495C -156.6068 89.04877 -154.744 86.802795 -154.404 86.859695C -154.04918 86.919075 -152.81151 89.68179 -152.67511 90.014694C -152.54437 90.33372 -151.53072 93.06989 -151.75003 93.33589L-151.75003 93.33589L-151.75 93.336z" stroke="none" fill="#26C6DA" fill-rule="nonzero" />
        <path d="M-79.474 267.78L-29.191998 267.78L-29.191998 274.1262L-79.474 274.1262z" stroke="none" fill="#FF7043" fill-rule="nonzero" />
        <path transform="matrix(0.63338 0.34028 -0.25699 0.83865 40.75 247.46)"  d="M-151.75 93.336C -151.97884 93.6136 -154.9902 93.304085 -155.3467 93.255775C -155.68834 93.20949 -158.56479 92.71924 -158.6855 92.39629C -158.81151 92.05931 -157.0377 89.606094 -156.8177 89.321495C -156.6068 89.04877 -154.744 86.802795 -154.404 86.859695C -154.04918 86.919075 -152.81151 89.68179 -152.67511 90.014694C -152.54437 90.33372 -151.53072 93.06989 -151.75003 93.33589L-151.75003 93.33589L-151.75 93.336z" stroke="none" fill="#FF7043" fill-rule="nonzero" />
        <path transform="matrix(-0.63338 0.34028 0.25699 0.83865 -149.51 247.46)"  d="M-151.75 93.336C -151.97884 93.6136 -154.9902 93.304085 -155.3467 93.255775C -155.68834 93.20949 -158.56479 92.71924 -158.6855 92.39629C -158.81151 92.05931 -157.0377 89.606094 -156.8177 89.321495C -156.6068 89.04877 -154.744 86.802795 -154.404 86.859695C -154.04918 86.919075 -152.81151 89.68179 -152.67511 90.014694C -152.54437 90.33372 -151.53072 93.06989 -151.75003 93.33589L-151.75003 93.33589L-151.75 93.336z" stroke="none" fill="#FF7043" fill-rule="nonzero" />
        <path d="M-79.002 282.88L-28.719997 282.88L-28.719997 289.2262L-79.002 289.2262z" stroke="none" fill="#FF7043" fill-rule="nonzero" />
        <path transform="matrix(0.63338 0.34028 -0.25699 0.83865 41.222 262.57)"  d="M-151.75 93.336C -151.97884 93.6136 -154.9902 93.304085 -155.3467 93.255775C -155.68834 93.20949 -158.56479 92.71924 -158.6855 92.39629C -158.81151 92.05931 -157.0377 89.606094 -156.8177 89.321495C -156.6068 89.04877 -154.744 86.802795 -154.404 86.859695C -154.04918 86.919075 -152.81151 89.68179 -152.67511 90.014694C -152.54437 90.33372 -151.53072 93.06989 -151.75003 93.33589L-151.75003 93.33589L-151.75 93.336z" stroke="none" fill="#FF7043" fill-rule="nonzero" />
        <path transform="matrix(-0.63338 0.34028 0.25699 0.83865 -149.04 262.57)"  d="M-151.75 93.336C -151.97884 93.6136 -154.9902 93.304085 -155.3467 93.255775C -155.68834 93.20949 -158.56479 92.71924 -158.6855 92.39629C -158.81151 92.05931 -157.0377 89.606094 -156.8177 89.321495C -156.6068 89.04877 -154.744 86.802795 -154.404 86.859695C -154.04918 86.919075 -152.81151 89.68179 -152.67511 90.014694C -152.54437 90.33372 -151.53072 93.06989 -151.75003 93.33589L-151.75003 93.33589L-151.75 93.336z" stroke="none" fill="#FF7043" fill-rule="nonzero" />
        <path d="M-17.336 267.47L62.980003 267.47L62.980003 273.8162L-17.336 273.8162z" stroke="none" fill="#CCCCCC" fill-rule="nonzero" />
        <path transform="matrix(0.63338 0.34028 -0.25699 0.83865 102.89 247.15)"  d="M-151.75 93.336C -151.97884 93.6136 -154.9902 93.304085 -155.3467 93.255775C -155.68834 93.20949 -158.56479 92.71924 -158.6855 92.39629C -158.81151 92.05931 -157.0377 89.606094 -156.8177 89.321495C -156.6068 89.04877 -154.744 86.802795 -154.404 86.859695C -154.04918 86.919075 -152.81151 89.68179 -152.67511 90.014694C -152.54437 90.33372 -151.53072 93.06989 -151.75003 93.33589L-151.75003 93.33589L-151.75 93.336z" stroke="none" fill="#CCCCCC" fill-rule="nonzero" />
        <path transform="matrix(-0.63338 0.34028 0.25699 0.83865 -57.786 247.15)"  d="M-151.75 93.336C -151.97884 93.6136 -154.9902 93.304085 -155.3467 93.255775C -155.68834 93.20949 -158.56479 92.71924 -158.6855 92.39629C -158.81151 92.05931 -157.0377 89.606094 -156.8177 89.321495C -156.6068 89.04877 -154.744 86.802795 -154.404 86.859695C -154.04918 86.919075 -152.81151 89.68179 -152.67511 90.014694C -152.54437 90.33372 -151.53072 93.06989 -151.75003 93.33589L-151.75003 93.33589L-151.75 93.336z" stroke="none" fill="#CCCCCC" fill-rule="nonzero" />
        <path d="M-16.077 281.94L64.239 281.94L64.239 288.2862L-16.077 288.2862z" stroke="none" fill="#CCCCCC" fill-rule="nonzero" />
        <path transform="matrix(0.63338 0.34028 -0.25699 0.83865 104.15 261.62)"  d="M-151.75 93.336C -151.97884 93.6136 -154.9902 93.304085 -155.3467 93.255775C -155.68834 93.20949 -158.56479 92.71924 -158.6855 92.39629C -158.81151 92.05931 -157.0377 89.606094 -156.8177 89.321495C -156.6068 89.04877 -154.744 86.802795 -154.404 86.859695C -154.04918 86.919075 -152.81151 89.68179 -152.67511 90.014694C -152.54437 90.33372 -151.53072 93.06989 -151.75003 93.33589L-151.75003 93.33589L-151.75 93.336z" stroke="none" fill="#CCCCCC" fill-rule="nonzero" />
        <path transform="matrix(-0.63338 0.34028 0.25699 0.83865 -56.527 261.62)"  d="M-151.75 93.336C -151.97884 93.6136 -154.9902 93.304085 -155.3467 93.255775C -155.68834 93.20949 -158.56479 92.71924 -158.6855 92.39629C -158.81151 92.05931 -157.0377 89.606094 -156.8177 89.321495C -156.6068 89.04877 -154.744 86.802795 -154.404 86.859695C -154.04918 86.919075 -152.81151 89.68179 -152.67511 90.014694C -152.54437 90.33372 -151.53072 93.06989 -151.75003 93.33589L-151.75003 93.33589L-151.75 93.336z" stroke="none" fill="#CCCCCC" fill-rule="nonzero" />
        <path d="M-122.58 295.37L-91.962006 295.37L-91.962006 301.7162L-122.58 301.7162z" stroke="none" fill="#26C6DA" fill-rule="nonzero" />
        <path transform="matrix(0.63338 0.34028 -0.25699 0.83865 -2.3535 275.05)"  d="M-151.75 93.336C -151.97884 93.6136 -154.9902 93.304085 -155.3467 93.255775C -155.68834 93.20949 -158.56479 92.71924 -158.6855 92.39629C -158.81151 92.05931 -157.0377 89.606094 -156.8177 89.321495C -156.6068 89.04877 -154.744 86.802795 -154.404 86.859695C -154.04918 86.919075 -152.81151 89.68179 -152.67511 90.014694C -152.54437 90.33372 -151.53072 93.06989 -151.75003 93.33589L-151.75003 93.33589L-151.75 93.336z" stroke="none" fill="#26C6DA" fill-rule="nonzero" />
        <path transform="matrix(-0.63338 0.34028 0.25699 0.83865 -212.12 275.05)"  d="M-151.75 93.336C -151.97884 93.6136 -154.9902 93.304085 -155.3467 93.255775C -155.68834 93.20949 -158.56479 92.71924 -158.6855 92.39629C -158.81151 92.05931 -157.0377 89.606094 -156.8177 89.321495C -156.6068 89.04877 -154.744 86.802795 -154.404 86.859695C -154.04918 86.919075 -152.81151 89.68179 -152.67511 90.014694C -152.54437 90.33372 -151.53072 93.06989 -151.75003 93.33589L-151.75003 93.33589L-151.75 93.336z" stroke="none" fill="#26C6DA" fill-rule="nonzero" />
        <path d="M-122.58 311.1L-91.962006 311.1L-91.962006 317.4462L-122.58 317.4462z" stroke="none" fill="#26C6DA" fill-rule="nonzero" />
        <path transform="matrix(0.63338 0.34028 -0.25699 0.83865 -2.3535 290.78)"  d="M-151.75 93.336C -151.97884 93.6136 -154.9902 93.304085 -155.3467 93.255775C -155.68834 93.20949 -158.56479 92.71924 -158.6855 92.39629C -158.81151 92.05931 -157.0377 89.606094 -156.8177 89.321495C -156.6068 89.04877 -154.744 86.802795 -154.404 86.859695C -154.04918 86.919075 -152.81151 89.68179 -152.67511 90.014694C -152.54437 90.33372 -151.53072 93.06989 -151.75003 93.33589L-151.75003 93.33589L-151.75 93.336z" stroke="none" fill="#26C6DA" fill-rule="nonzero" />
        <path transform="matrix(-0.63338 0.34028 0.25699 0.83865 -212.12 290.78)"  d="M-151.75 93.336C -151.97884 93.6136 -154.9902 93.304085 -155.3467 93.255775C -155.68834 93.20949 -158.56479 92.71924 -158.6855 92.39629C -158.81151 92.05931 -157.0377 89.606094 -156.8177 89.321495C -156.6068 89.04877 -154.744 86.802795 -154.404 86.859695C -154.04918 86.919075 -152.81151 89.68179 -152.67511 90.014694C -152.54437 90.33372 -151.53072 93.06989 -151.75003 93.33589L-151.75003 93.33589L-151.75 93.336z" stroke="none" fill="#26C6DA" fill-rule="nonzero" />
        <path d="M-79.474 295.37L-29.191998 295.37L-29.191998 301.7162L-79.474 301.7162z" stroke="none" fill="#FF7043" fill-rule="nonzero" />
        <path transform="matrix(0.63338 0.34028 -0.25699 0.83865 40.75 275.05)"  d="M-151.75 93.336C -151.97884 93.6136 -154.9902 93.304085 -155.3467 93.255775C -155.68834 93.20949 -158.56479 92.71924 -158.6855 92.39629C -158.81151 92.05931 -157.0377 89.606094 -156.8177 89.321495C -156.6068 89.04877 -154.744 86.802795 -154.404 86.859695C -154.04918 86.919075 -152.81151 89.68179 -152.67511 90.014694C -152.54437 90.33372 -151.53072 93.06989 -151.75003 93.33589L-151.75003 93.33589L-151.75 93.336z" stroke="none" fill="#FF7043" fill-rule="nonzero" />
        <path transform="matrix(-0.63338 0.34028 0.25699 0.83865 -149.51 275.05)"  d="M-151.75 93.336C -151.97884 93.6136 -154.9902 93.304085 -155.3467 93.255775C -155.68834 93.20949 -158.56479 92.71924 -158.6855 92.39629C -158.81151 92.05931 -157.0377 89.606094 -156.8177 89.321495C -156.6068 89.04877 -154.744 86.802795 -154.404 86.859695C -154.04918 86.919075 -152.81151 89.68179 -152.67511 90.014694C -152.54437 90.33372 -151.53072 93.06989 -151.75003 93.33589L-151.75003 93.33589L-151.75 93.336z" stroke="none" fill="#FF7043" fill-rule="nonzero" />
        <path d="M-79.002 310.47L-28.719997 310.47L-28.719997 316.8162L-79.002 316.8162z" stroke="none" fill="#FF7043" fill-rule="nonzero" />
        <path transform="matrix(0.63338 0.34028 -0.25699 0.83865 41.222 290.15)"  d="M-151.75 93.336C -151.97884 93.6136 -154.9902 93.304085 -155.3467 93.255775C -155.68834 93.20949 -158.56479 92.71924 -158.6855 92.39629C -158.81151 92.05931 -157.0377 89.606094 -156.8177 89.321495C -156.6068 89.04877 -154.744 86.802795 -154.404 86.859695C -154.04918 86.919075 -152.81151 89.68179 -152.67511 90.014694C -152.54437 90.33372 -151.53072 93.06989 -151.75003 93.33589L-151.75003 93.33589L-151.75 93.336z" stroke="none" fill="#FF7043" fill-rule="nonzero" />
        <path transform="matrix(-0.63338 0.34028 0.25699 0.83865 -149.04 290.15)"  d="M-151.75 93.336C -151.97884 93.6136 -154.9902 93.304085 -155.3467 93.255775C -155.68834 93.20949 -158.56479 92.71924 -158.6855 92.39629C -158.81151 92.05931 -157.0377 89.606094 -156.8177 89.321495C -156.6068 89.04877 -154.744 86.802795 -154.404 86.859695C -154.04918 86.919075 -152.81151 89.68179 -152.67511 90.014694C -152.54437 90.33372 -151.53072 93.06989 -151.75003 93.33589L-151.75003 93.33589L-151.75 93.336z" stroke="none" fill="#FF7043" fill-rule="nonzero" />
        <path d="M-17.336 295.05L62.980003 295.05L62.980003 301.39618L-17.336 301.39618z" stroke="none" fill="#CCCCCC" fill-rule="nonzero" />
        <path transform="matrix(0.63338 0.34028 -0.25699 0.83865 102.89 274.74)"  d="M-151.75 93.336C -151.97884 93.6136 -154.9902 93.304085 -155.3467 93.255775C -155.68834 93.20949 -158.56479 92.71924 -158.6855 92.39629C -158.81151 92.05931 -157.0377 89.606094 -156.8177 89.321495C -156.6068 89.04877 -154.744 86.802795 -154.404 86.859695C -154.04918 86.919075 -152.81151 89.68179 -152.67511 90.014694C -152.54437 90.33372 -151.53072 93.06989 -151.75003 93.33589L-151.75003 93.33589L-151.75 93.336z" stroke="none" fill="#CCCCCC" fill-rule="nonzero" />
        <path transform="matrix(-0.63338 0.34028 0.25699 0.83865 -57.786 274.74)"  d="M-151.75 93.336C -151.97884 93.6136 -154.9902 93.304085 -155.3467 93.255775C -155.68834 93.20949 -158.56479 92.71924 -158.6855 92.39629C -158.81151 92.05931 -157.0377 89.606094 -156.8177 89.321495C -156.6068 89.04877 -154.744 86.802795 -154.404 86.859695C -154.04918 86.919075 -152.81151 89.68179 -152.67511 90.014694C -152.54437 90.33372 -151.53072 93.06989 -151.75003 93.33589L-151.75003 93.33589L-151.75 93.336z" stroke="none" fill="#CCCCCC" fill-rule="nonzero" />
        <path d="M-16.077 309.53L64.239 309.53L64.239 315.8762L-16.077 315.8762z" stroke="none" fill="#CCCCCC" fill-rule="nonzero" />
        <path transform="matrix(0.63338 0.34028 -0.25699 0.83865 104.15 289.21)"  d="M-151.75 93.336C -151.97884 93.6136 -154.9902 93.304085 -155.3467 93.255775C -155.68834 93.20949 -158.56479 92.71924 -158.6855 92.39629C -158.81151 92.05931 -157.0377 89.606094 -156.8177 89.321495C -156.6068 89.04877 -154.744 86.802795 -154.404 86.859695C -154.04918 86.919075 -152.81151 89.68179 -152.67511 90.014694C -152.54437 90.33372 -151.53072 93.06989 -151.75003 93.33589L-151.75003 93.33589L-151.75 93.336z" stroke="none" fill="#CCCCCC" fill-rule="nonzero" />
        <path transform="matrix(-0.63338 0.34028 0.25699 0.83865 -56.527 289.21)"  d="M-151.75 93.336C -151.97884 93.6136 -154.9902 93.304085 -155.3467 93.255775C -155.68834 93.20949 -158.56479 92.71924 -158.6855 92.39629C -158.81151 92.05931 -157.0377 89.606094 -156.8177 89.321495C -156.6068 89.04877 -154.744 86.802795 -154.404 86.859695C -154.04918 86.919075 -152.81151 89.68179 -152.67511 90.014694C -152.54437 90.33372 -151.53072 93.06989 -151.75003 93.33589L-151.75003 93.33589L-151.75 93.336z" stroke="none" fill="#CCCCCC" fill-rule="nonzero" />
        <path d="M-139.04 328.74L-108.422 328.74L-108.422 335.08618L-139.04 335.08618z" stroke="none" fill="#26C6DA" fill-rule="nonzero" />
        <path transform="matrix(0.63338 0.34028 -0.25699 0.83865 -18.816 308.42)"  d="M-151.75 93.336C -151.97884 93.6136 -154.9902 93.304085 -155.3467 93.255775C -155.68834 93.20949 -158.56479 92.71924 -158.6855 92.39629C -158.81151 92.05931 -157.0377 89.606094 -156.8177 89.321495C -156.6068 89.04877 -154.744 86.802795 -154.404 86.859695C -154.04918 86.919075 -152.81151 89.68179 -152.67511 90.014694C -152.54437 90.33372 -151.53072 93.06989 -151.75003 93.33589L-151.75003 93.33589L-151.75 93.336z" stroke="none" fill="#26C6DA" fill-rule="nonzero" />
        <path transform="matrix(-0.63338 0.34028 0.25699 0.83865 -228.58 308.42)"  d="M-151.75 93.336C -151.97884 93.6136 -154.9902 93.304085 -155.3467 93.255775C -155.68834 93.20949 -158.56479 92.71924 -158.6855 92.39629C -158.81151 92.05931 -157.0377 89.606094 -156.8177 89.321495C -156.6068 89.04877 -154.744 86.802795 -154.404 86.859695C -154.04918 86.919075 -152.81151 89.68179 -152.67511 90.014694C -152.54437 90.33372 -151.53072 93.06989 -151.75003 93.33589L-151.75003 93.33589L-151.75 93.336z" stroke="none" fill="#26C6DA" fill-rule="nonzero" />
        <path d="M-139.04 344.47L-108.422 344.47L-108.422 350.8162L-139.04 350.8162z" stroke="none" fill="#26C6DA" fill-rule="nonzero" />
        <path transform="matrix(0.63338 0.34028 -0.25699 0.83865 -18.816 324.15)"  d="M-151.75 93.336C -151.97884 93.6136 -154.9902 93.304085 -155.3467 93.255775C -155.68834 93.20949 -158.56479 92.71924 -158.6855 92.39629C -158.81151 92.05931 -157.0377 89.606094 -156.8177 89.321495C -156.6068 89.04877 -154.744 86.802795 -154.404 86.859695C -154.04918 86.919075 -152.81151 89.68179 -152.67511 90.014694C -152.54437 90.33372 -151.53072 93.06989 -151.75003 93.33589L-151.75003 93.33589L-151.75 93.336z" stroke="none" fill="#26C6DA" fill-rule="nonzero" />
        <path transform="matrix(-0.63338 0.34028 0.25699 0.83865 -228.58 324.15)"  d="M-151.75 93.336C -151.97884 93.6136 -154.9902 93.304085 -155.3467 93.255775C -155.68834 93.20949 -158.56479 92.71924 -158.6855 92.39629C -158.81151 92.05931 -157.0377 89.606094 -156.8177 89.321495C -156.6068 89.04877 -154.744 86.802795 -154.404 86.859695C -154.04918 86.919075 -152.81151 89.68179 -152.67511 90.014694C -152.54437 90.33372 -151.53072 93.06989 -151.75003 93.33589L-151.75003 93.33589L-151.75 93.336z" stroke="none" fill="#26C6DA" fill-rule="nonzero" />
        <path d="M-95.936 328.74L-45.653996 328.74L-45.653996 335.08618L-95.936 335.08618z" stroke="none" fill="#FF7043" fill-rule="nonzero" />
        <path transform="matrix(0.63338 0.34028 -0.25699 0.83865 24.287 308.42)"  d="M-151.75 93.336C -151.97884 93.6136 -154.9902 93.304085 -155.3467 93.255775C -155.68834 93.20949 -158.56479 92.71924 -158.6855 92.39629C -158.81151 92.05931 -157.0377 89.606094 -156.8177 89.321495C -156.6068 89.04877 -154.744 86.802795 -154.404 86.859695C -154.04918 86.919075 -152.81151 89.68179 -152.67511 90.014694C -152.54437 90.33372 -151.53072 93.06989 -151.75003 93.33589L-151.75003 93.33589L-151.75 93.336z" stroke="none" fill="#FF7043" fill-rule="nonzero" />
        <path transform="matrix(-0.63338 0.34028 0.25699 0.83865 -165.98 308.42)"  d="M-151.75 93.336C -151.97884 93.6136 -154.9902 93.304085 -155.3467 93.255775C -155.68834 93.20949 -158.56479 92.71924 -158.6855 92.39629C -158.81151 92.05931 -157.0377 89.606094 -156.8177 89.321495C -156.6068 89.04877 -154.744 86.802795 -154.404 86.859695C -154.04918 86.919075 -152.81151 89.68179 -152.67511 90.014694C -152.54437 90.33372 -151.53072 93.06989 -151.75003 93.33589L-151.75003 93.33589L-151.75 93.336z" stroke="none" fill="#FF7043" fill-rule="nonzero" />
        <path d="M-95.464 343.84L-45.181995 343.84L-45.181995 350.1862L-95.464 350.1862z" stroke="none" fill="#FF7043" fill-rule="nonzero" />
        <path transform="matrix(0.63338 0.34028 -0.25699 0.83865 24.759 323.52)"  d="M-151.75 93.336C -151.97884 93.6136 -154.9902 93.304085 -155.3467 93.255775C -155.68834 93.20949 -158.56479 92.71924 -158.6855 92.39629C -158.81151 92.05931 -157.0377 89.606094 -156.8177 89.321495C -156.6068 89.04877 -154.744 86.802795 -154.404 86.859695C -154.04918 86.919075 -152.81151 89.68179 -152.67511 90.014694C -152.54437 90.33372 -151.53072 93.06989 -151.75003 93.33589L-151.75003 93.33589L-151.75 93.336z" stroke="none" fill="#FF7043" fill-rule="nonzero" />
        <path transform="matrix(-0.63338 0.34028 0.25699 0.83865 -165.5 323.52)"  d="M-151.75 93.336C -151.97884 93.6136 -154.9902 93.304085 -155.3467 93.255775C -155.68834 93.20949 -158.56479 92.71924 -158.6855 92.39629C -158.81151 92.05931 -157.0377 89.606094 -156.8177 89.321495C -156.6068 89.04877 -154.744 86.802795 -154.404 86.859695C -154.04918 86.919075 -152.81151 89.68179 -152.67511 90.014694C -152.54437 90.33372 -151.53072 93.06989 -151.75003 93.33589L-151.75003 93.33589L-151.75 93.336z" stroke="none" fill="#FF7043" fill-rule="nonzero" />
        <path d="M-33.798 328.42L46.518 328.42L46.518 334.7662L-33.798 334.7662z" stroke="none" fill="#CCCCCC" fill-rule="nonzero" />
        <path transform="matrix(0.63338 0.34028 -0.25699 0.83865 86.425 308.11)"  d="M-151.75 93.336C -151.97884 93.6136 -154.9902 93.304085 -155.3467 93.255775C -155.68834 93.20949 -158.56479 92.71924 -158.6855 92.39629C -158.81151 92.05931 -157.0377 89.606094 -156.8177 89.321495C -156.6068 89.04877 -154.744 86.802795 -154.404 86.859695C -154.04918 86.919075 -152.81151 89.68179 -152.67511 90.014694C -152.54437 90.33372 -151.53072 93.06989 -151.75003 93.33589L-151.75003 93.33589L-151.75 93.336z" stroke="none" fill="#CCCCCC" fill-rule="nonzero" />
        <path transform="matrix(-0.63338 0.34028 0.25699 0.83865 -74.248 308.11)"  d="M-151.75 93.336C -151.97884 93.6136 -154.9902 93.304085 -155.3467 93.255775C -155.68834 93.20949 -158.56479 92.71924 -158.6855 92.39629C -158.81151 92.05931 -157.0377 89.606094 -156.8177 89.321495C -156.6068 89.04877 -154.744 86.802795 -154.404 86.859695C -154.04918 86.919075 -152.81151 89.68179 -152.67511 90.014694C -152.54437 90.33372 -151.53072 93.06989 -151.75003 93.33589L-151.75003 93.33589L-151.75 93.336z" stroke="none" fill="#CCCCCC" fill-rule="nonzero" />
        <path d="M-32.54 342.9L47.776 342.9L47.776 349.2462L-32.54 349.2462z" stroke="none" fill="#CCCCCC" fill-rule="nonzero" />
        <path transform="matrix(0.63338 0.34028 -0.25699 0.83865 87.683 322.58)"  d="M-151.75 93.336C -151.97884 93.6136 -154.9902 93.304085 -155.3467 93.255775C -155.68834 93.20949 -158.56479 92.71924 -158.6855 92.39629C -158.81151 92.05931 -157.0377 89.606094 -156.8177 89.321495C -156.6068 89.04877 -154.744 86.802795 -154.404 86.859695C -154.04918 86.919075 -152.81151 89.68179 -152.67511 90.014694C -152.54437 90.33372 -151.53072 93.06989 -151.75003 93.33589L-151.75003 93.33589L-151.75 93.336z" stroke="none" fill="#CCCCCC" fill-rule="nonzero" />
        <path transform="matrix(-0.63338 0.34028 0.25699 0.83865 -72.99 322.58)"  d="M-151.75 93.336C -151.97884 93.6136 -154.9902 93.304085 -155.3467 93.255775C -155.68834 93.20949 -158.56479 92.71924 -158.6855 92.39629C -158.81151 92.05931 -157.0377 89.606094 -156.8177 89.321495C -156.6068 89.04877 -154.744 86.802795 -154.404 86.859695C -154.04918 86.919075 -152.81151 89.68179 -152.67511 90.014694C -152.54437 90.33372 -151.53072 93.06989 -151.75003 93.33589L-151.75003 93.33589L-151.75 93.336z" stroke="none" fill="#CCCCCC" fill-rule="nonzero" />
        <path d="M-123.94 358.63L-93.32201 358.63L-93.32201 364.9762L-123.94 364.9762z" stroke="none" fill="#26C6DA" fill-rule="nonzero" />
        <path transform="matrix(0.63338 0.34028 -0.25699 0.83865 -3.7145 338.31)"  d="M-151.75 93.336C -151.97884 93.6136 -154.9902 93.304085 -155.3467 93.255775C -155.68834 93.20949 -158.56479 92.71924 -158.6855 92.39629C -158.81151 92.05931 -157.0377 89.606094 -156.8177 89.321495C -156.6068 89.04877 -154.744 86.802795 -154.404 86.859695C -154.04918 86.919075 -152.81151 89.68179 -152.67511 90.014694C -152.54437 90.33372 -151.53072 93.06989 -151.75003 93.33589L-151.75003 93.33589L-151.75 93.336z" stroke="none" fill="#26C6DA" fill-rule="nonzero" />
        <path transform="matrix(-0.63338 0.34028 0.25699 0.83865 -213.48 338.31)"  d="M-151.75 93.336C -151.97884 93.6136 -154.9902 93.304085 -155.3467 93.255775C -155.68834 93.20949 -158.56479 92.71924 -158.6855 92.39629C -158.81151 92.05931 -157.0377 89.606094 -156.8177 89.321495C -156.6068 89.04877 -154.744 86.802795 -154.404 86.859695C -154.04918 86.919075 -152.81151 89.68179 -152.67511 90.014694C -152.54437 90.33372 -151.53072 93.06989 -151.75003 93.33589L-151.75003 93.33589L-151.75 93.336z" stroke="none" fill="#26C6DA" fill-rule="nonzero" />
        <path d="M-80.363 358L-0.04699707 358L-0.04699707 364.3462L-80.363 364.3462z" stroke="none" fill="#FF7043" fill-rule="nonzero" />
        <path transform="matrix(0.63338 0.34028 -0.25699 0.83865 39.861 337.68)"  d="M-151.75 93.336C -151.97884 93.6136 -154.9902 93.304085 -155.3467 93.255775C -155.68834 93.20949 -158.56479 92.71924 -158.6855 92.39629C -158.81151 92.05931 -157.0377 89.606094 -156.8177 89.321495C -156.6068 89.04877 -154.744 86.802795 -154.404 86.859695C -154.04918 86.919075 -152.81151 89.68179 -152.67511 90.014694C -152.54437 90.33372 -151.53072 93.06989 -151.75003 93.33589L-151.75003 93.33589L-151.75 93.336z" stroke="none" fill="#FF7043" fill-rule="nonzero" />
        <path transform="matrix(-0.63338 0.34028 0.25699 0.83865 -120.81 337.68)"  d="M-151.75 93.336C -151.97884 93.6136 -154.9902 93.304085 -155.3467 93.255775C -155.68834 93.20949 -158.56479 92.71924 -158.6855 92.39629C -158.81151 92.05931 -157.0377 89.606094 -156.8177 89.321495C -156.6068 89.04877 -154.744 86.802795 -154.404 86.859695C -154.04918 86.919075 -152.81151 89.68179 -152.67511 90.014694C -152.54437 90.33372 -151.53072 93.06989 -151.75003 93.33589L-151.75003 93.33589L-151.75 93.336z" stroke="none" fill="#FF7043" fill-rule="nonzero" />
        <path d="M-123.94 370.58L-93.32201 370.58L-93.32201 376.92618L-123.94 376.92618z" stroke="none" fill="#26C6DA" fill-rule="nonzero" />
        <path transform="matrix(0.63338 0.34028 -0.25699 0.83865 -3.7145 350.27)"  d="M-151.75 93.336C -151.97884 93.6136 -154.9902 93.304085 -155.3467 93.255775C -155.68834 93.20949 -158.56479 92.71924 -158.6855 92.39629C -158.81151 92.05931 -157.0377 89.606094 -156.8177 89.321495C -156.6068 89.04877 -154.744 86.802795 -154.404 86.859695C -154.04918 86.919075 -152.81151 89.68179 -152.67511 90.014694C -152.54437 90.33372 -151.53072 93.06989 -151.75003 93.33589L-151.75003 93.33589L-151.75 93.336z" stroke="none" fill="#26C6DA" fill-rule="nonzero" />
        <path transform="matrix(-0.63338 0.34028 0.25699 0.83865 -213.48 350.27)"  d="M-151.75 93.336C -151.97884 93.6136 -154.9902 93.304085 -155.3467 93.255775C -155.68834 93.20949 -158.56479 92.71924 -158.6855 92.39629C -158.81151 92.05931 -157.0377 89.606094 -156.8177 89.321495C -156.6068 89.04877 -154.744 86.802795 -154.404 86.859695C -154.04918 86.919075 -152.81151 89.68179 -152.67511 90.014694C -152.54437 90.33372 -151.53072 93.06989 -151.75003 93.33589L-151.75003 93.33589L-151.75 93.336z" stroke="none" fill="#26C6DA" fill-rule="nonzero" />
        <path d="M11.979 358.63L42.597 358.63L42.597 364.9762L11.979 364.9762z" stroke="none" fill="#CCCCCC" fill-rule="nonzero" />
        <path transform="matrix(0.63338 0.34028 -0.25699 0.83865 132.2 338.31)"  d="M-151.75 93.336C -151.97884 93.6136 -154.9902 93.304085 -155.3467 93.255775C -155.68834 93.20949 -158.56479 92.71924 -158.6855 92.39629C -158.81151 92.05931 -157.0377 89.606094 -156.8177 89.321495C -156.6068 89.04877 -154.744 86.802795 -154.404 86.859695C -154.04918 86.919075 -152.81151 89.68179 -152.67511 90.014694C -152.54437 90.33372 -151.53072 93.06989 -151.75003 93.33589L-151.75003 93.33589L-151.75 93.336z" stroke="none" fill="#CCCCCC" fill-rule="nonzero" />
        <path transform="matrix(-0.63338 0.34028 0.25699 0.83865 -77.566 338.31)"  d="M-151.75 93.336C -151.97884 93.6136 -154.9902 93.304085 -155.3467 93.255775C -155.68834 93.20949 -158.56479 92.71924 -158.6855 92.39629C -158.81151 92.05931 -157.0377 89.606094 -156.8177 89.321495C -156.6068 89.04877 -154.744 86.802795 -154.404 86.859695C -154.04918 86.919075 -152.81151 89.68179 -152.67511 90.014694C -152.54437 90.33372 -151.53072 93.06989 -151.75003 93.33589L-151.75003 93.33589L-151.75 93.336z" stroke="none" fill="#CCCCCC" fill-rule="nonzero" />
        <path d="M-79.45 370.9L63.03 370.9L63.03 377.2462L-79.45 377.2462z" stroke="none" fill="#CCCCCC" fill-rule="nonzero" />
        <path transform="matrix(0.61532 0.34028 -0.24966 0.83865 37.346 350.58)"  d="M-151.75 93.336C -151.97884 93.6136 -154.9902 93.304085 -155.3467 93.255775C -155.68834 93.20949 -158.56479 92.71924 -158.6855 92.39629C -158.81151 92.05931 -157.0377 89.606094 -156.8177 89.321495C -156.6068 89.04877 -154.744 86.802795 -154.404 86.859695C -154.04918 86.919075 -152.81151 89.68179 -152.67511 90.014694C -152.54437 90.33372 -151.53072 93.06989 -151.75003 93.33589L-151.75003 93.33589L-151.75 93.336z" stroke="none" fill="#CCCCCC" fill-rule="nonzero" />
        <path transform="matrix(-0.61532 0.34028 0.24966 0.83865 -53.962 350.58)"  d="M-151.75 93.336C -151.97884 93.6136 -154.9902 93.304085 -155.3467 93.255775C -155.68834 93.20949 -158.56479 92.71924 -158.6855 92.39629C -158.81151 92.05931 -157.0377 89.606094 -156.8177 89.321495C -156.6068 89.04877 -154.744 86.802795 -154.404 86.859695C -154.04918 86.919075 -152.81151 89.68179 -152.67511 90.014694C -152.54437 90.33372 -151.53072 93.06989 -151.75003 93.33589L-151.75003 93.33589L-151.75 93.336z" stroke="none" fill="#CCCCCC" fill-rule="nonzero" />
        <path d="M-123.94 384.43L-93.32201 384.43L-93.32201 390.77618L-123.94 390.77618z" stroke="none" fill="#26C6DA" fill-rule="nonzero" />
        <path transform="matrix(0.63338 0.34028 -0.25699 0.83865 -3.7145 364.11)"  d="M-151.75 93.336C -151.97884 93.6136 -154.9902 93.304085 -155.3467 93.255775C -155.68834 93.20949 -158.56479 92.71924 -158.6855 92.39629C -158.81151 92.05931 -157.0377 89.606094 -156.8177 89.321495C -156.6068 89.04877 -154.744 86.802795 -154.404 86.859695C -154.04918 86.919075 -152.81151 89.68179 -152.67511 90.014694C -152.54437 90.33372 -151.53072 93.06989 -151.75003 93.33589L-151.75003 93.33589L-151.75 93.336z" stroke="none" fill="#26C6DA" fill-rule="nonzero" />
        <path transform="matrix(-0.63338 0.34028 0.25699 0.83865 -213.48 364.11)"  d="M-151.75 93.336C -151.97884 93.6136 -154.9902 93.304085 -155.3467 93.255775C -155.68834 93.20949 -158.56479 92.71924 -158.6855 92.39629C -158.81151 92.05931 -157.0377 89.606094 -156.8177 89.321495C -156.6068 89.04877 -154.744 86.802795 -154.404 86.859695C -154.04918 86.919075 -152.81151 89.68179 -152.67511 90.014694C -152.54437 90.33372 -151.53072 93.06989 -151.75003 93.33589L-151.75003 93.33589L-151.75 93.336z" stroke="none" fill="#26C6DA" fill-rule="nonzero" />
        <path d="M-80.363 383.8L-0.04699707 383.8L-0.04699707 390.14618L-80.363 390.14618z" stroke="none" fill="#FF7043" fill-rule="nonzero" />
        <path transform="matrix(0.63338 0.34028 -0.25699 0.83865 39.861 363.48)"  d="M-151.75 93.336C -151.97884 93.6136 -154.9902 93.304085 -155.3467 93.255775C -155.68834 93.20949 -158.56479 92.71924 -158.6855 92.39629C -158.81151 92.05931 -157.0377 89.606094 -156.8177 89.321495C -156.6068 89.04877 -154.744 86.802795 -154.404 86.859695C -154.04918 86.919075 -152.81151 89.68179 -152.67511 90.014694C -152.54437 90.33372 -151.53072 93.06989 -151.75003 93.33589L-151.75003 93.33589L-151.75 93.336z" stroke="none" fill="#FF7043" fill-rule="nonzero" />
        <path transform="matrix(-0.63338 0.34028 0.25699 0.83865 -120.81 363.48)"  d="M-151.75 93.336C -151.97884 93.6136 -154.9902 93.304085 -155.3467 93.255775C -155.68834 93.20949 -158.56479 92.71924 -158.6855 92.39629C -158.81151 92.05931 -157.0377 89.606094 -156.8177 89.321495C -156.6068 89.04877 -154.744 86.802795 -154.404 86.859695C -154.04918 86.919075 -152.81151 89.68179 -152.67511 90.014694C -152.54437 90.33372 -151.53072 93.06989 -151.75003 93.33589L-151.75003 93.33589L-151.75 93.336z" stroke="none" fill="#FF7043" fill-rule="nonzero" />
        <path d="M11.979 384.43L42.597 384.43L42.597 390.77618L11.979 390.77618z" stroke="none" fill="#CCCCCC" fill-rule="nonzero" />
        <path transform="matrix(0.63338 0.34028 -0.25699 0.83865 132.2 364.11)"  d="M-151.75 93.336C -151.97884 93.6136 -154.9902 93.304085 -155.3467 93.255775C -155.68834 93.20949 -158.56479 92.71924 -158.6855 92.39629C -158.81151 92.05931 -157.0377 89.606094 -156.8177 89.321495C -156.6068 89.04877 -154.744 86.802795 -154.404 86.859695C -154.04918 86.919075 -152.81151 89.68179 -152.67511 90.014694C -152.54437 90.33372 -151.53072 93.06989 -151.75003 93.33589L-151.75003 93.33589L-151.75 93.336z" stroke="none" fill="#CCCCCC" fill-rule="nonzero" />
        <path transform="matrix(-0.63338 0.34028 0.25699 0.83865 -77.566 364.11)"  d="M-151.75 93.336C -151.97884 93.6136 -154.9902 93.304085 -155.3467 93.255775C -155.68834 93.20949 -158.56479 92.71924 -158.6855 92.39629C -158.81151 92.05931 -157.0377 89.606094 -156.8177 89.321495C -156.6068 89.04877 -154.744 86.802795 -154.404 86.859695C -154.04918 86.919075 -152.81151 89.68179 -152.67511 90.014694C -152.54437 90.33372 -151.53072 93.06989 -151.75003 93.33589L-151.75003 93.33589L-151.75 93.336z" stroke="none" fill="#CCCCCC" fill-rule="nonzero" />
        <path d="M-125.2 397.56L-94.582 397.56L-94.582 403.9062L-125.2 403.9062z" stroke="none" fill="#26C6DA" fill-rule="nonzero" />
        <path transform="matrix(0.63338 0.34028 -0.25699 0.83865 -4.973 377.24)"  d="M-151.75 93.336C -151.97884 93.6136 -154.9902 93.304085 -155.3467 93.255775C -155.68834 93.20949 -158.56479 92.71924 -158.6855 92.39629C -158.81151 92.05931 -157.0377 89.606094 -156.8177 89.321495C -156.6068 89.04877 -154.744 86.802795 -154.404 86.859695C -154.04918 86.919075 -152.81151 89.68179 -152.67511 90.014694C -152.54437 90.33372 -151.53072 93.06989 -151.75003 93.33589L-151.75003 93.33589L-151.75 93.336z" stroke="none" fill="#26C6DA" fill-rule="nonzero" />
        <path transform="matrix(-0.63338 0.34028 0.25699 0.83865 -214.74 377.24)"  d="M-151.75 93.336C -151.97884 93.6136 -154.9902 93.304085 -155.3467 93.255775C -155.68834 93.20949 -158.56479 92.71924 -158.6855 92.39629C -158.81151 92.05931 -157.0377 89.606094 -156.8177 89.321495C -156.6068 89.04877 -154.744 86.802795 -154.404 86.859695C -154.04918 86.919075 -152.81151 89.68179 -152.67511 90.014694C -152.54437 90.33372 -151.53072 93.06989 -151.75003 93.33589L-151.75003 93.33589L-151.75 93.336z" stroke="none" fill="#26C6DA" fill-rule="nonzero" />
        <path d="M-22.414 397.56L64.178 397.56L64.178 403.9062L-22.414 403.9062z" stroke="none" fill="#CCCCCC" fill-rule="nonzero" />
        <path transform="matrix(0.63338 0.34028 -0.25699 0.83865 97.809 377.24)"  d="M-151.75 93.336C -151.97884 93.6136 -154.9902 93.304085 -155.3467 93.255775C -155.68834 93.20949 -158.56479 92.71924 -158.6855 92.39629C -158.81151 92.05931 -157.0377 89.606094 -156.8177 89.321495C -156.6068 89.04877 -154.744 86.802795 -154.404 86.859695C -154.04918 86.919075 -152.81151 89.68179 -152.67511 90.014694C -152.54437 90.33372 -151.53072 93.06989 -151.75003 93.33589L-151.75003 93.33589L-151.75 93.336z" stroke="none" fill="#CCCCCC" fill-rule="nonzero" />
        <path transform="matrix(-0.63338 0.34028 0.25699 0.83865 -56.246 377.24)"  d="M-151.75 93.336C -151.97884 93.6136 -154.9902 93.304085 -155.3467 93.255775C -155.68834 93.20949 -158.56479 92.71924 -158.6855 92.39629C -158.81151 92.05931 -157.0377 89.606094 -156.8177 89.321495C -156.6068 89.04877 -154.744 86.802795 -154.404 86.859695C -154.04918 86.919075 -152.81151 89.68179 -152.67511 90.014694C -152.54437 90.33372 -151.53072 93.06989 -151.75003 93.33589L-151.75003 93.33589L-151.75 93.336z" stroke="none" fill="#CCCCCC" fill-rule="nonzero" />
        <path d="M-124.45 408.89L63.910004 408.89L63.910004 415.2362L-124.45 415.2362z" stroke="none" fill="#CCCCCC" fill-rule="nonzero" />
        <path transform="matrix(0.81264 0.34028 -0.32973 0.83865 29.805 388.57)"  d="M-151.75 93.336C -151.97884 93.6136 -154.9902 93.304085 -155.3467 93.255775C -155.68834 93.20949 -158.56479 92.71924 -158.6855 92.39629C -158.81151 92.05931 -157.0377 89.606094 -156.8177 89.321495C -156.6068 89.04877 -154.744 86.802795 -154.404 86.859695C -154.04918 86.919075 -152.81151 89.68179 -152.67511 90.014694C -152.54437 90.33372 -151.53072 93.06989 -151.75003 93.33589L-151.75003 93.33589L-151.75 93.336z" stroke="none" fill="#CCCCCC" fill-rule="nonzero" />
        <path transform="matrix(-0.81264 0.34028 0.32973 0.83865 -90.784 388.57)"  d="M-151.75 93.336C -151.97884 93.6136 -154.9902 93.304085 -155.3467 93.255775C -155.68834 93.20949 -158.56479 92.71924 -158.6855 92.39629C -158.81151 92.05931 -157.0377 89.606094 -156.8177 89.321495C -156.6068 89.04877 -154.744 86.802795 -154.404 86.859695C -154.04918 86.919075 -152.81151 89.68179 -152.67511 90.014694C -152.54437 90.33372 -151.53072 93.06989 -151.75003 93.33589L-151.75003 93.33589L-151.75 93.336z" stroke="none" fill="#CCCCCC" fill-rule="nonzero" />
        <path d="M-124.45 419.59L63.910004 419.59L63.910004 425.9362L-124.45 425.9362z" stroke="none" fill="#CCCCCC" fill-rule="nonzero" />
        <path transform="matrix(0.81264 0.34028 -0.32973 0.83865 29.805 399.27)"  d="M-151.75 93.336C -151.97884 93.6136 -154.9902 93.304085 -155.3467 93.255775C -155.68834 93.20949 -158.56479 92.71924 -158.6855 92.39629C -158.81151 92.05931 -157.0377 89.606094 -156.8177 89.321495C -156.6068 89.04877 -154.744 86.802795 -154.404 86.859695C -154.04918 86.919075 -152.81151 89.68179 -152.67511 90.014694C -152.54437 90.33372 -151.53072 93.06989 -151.75003 93.33589L-151.75003 93.33589L-151.75 93.336z" stroke="none" fill="#CCCCCC" fill-rule="nonzero" />
        <path transform="matrix(-0.81264 0.34028 0.32973 0.83865 -90.784 399.27)"  d="M-151.75 93.336C -151.97884 93.6136 -154.9902 93.304085 -155.3467 93.255775C -155.68834 93.20949 -158.56479 92.71924 -158.6855 92.39629C -158.81151 92.05931 -157.0377 89.606094 -156.8177 89.321495C -156.6068 89.04877 -154.744 86.802795 -154.404 86.859695C -154.04918 86.919075 -152.81151 89.68179 -152.67511 90.014694C -152.54437 90.33372 -151.53072 93.06989 -151.75003 93.33589L-151.75003 93.33589L-151.75 93.336z" stroke="none" fill="#CCCCCC" fill-rule="nonzero" />
        <path d="M-80.186 397.56L-35.498997 397.56L-35.498997 403.9062L-80.186 403.9062z" stroke="none" fill="#FF7043" fill-rule="nonzero" />
        <path transform="matrix(0.92441 0.34028 -0.37508 0.83865 95.28 377.24)"  d="M-151.75 93.336C -151.97884 93.6136 -154.9902 93.304085 -155.3467 93.255775C -155.68834 93.20949 -158.56479 92.71924 -158.6855 92.39629C -158.81151 92.05931 -157.0377 89.606094 -156.8177 89.321495C -156.6068 89.04877 -154.744 86.802795 -154.404 86.859695C -154.04918 86.919075 -152.81151 89.68179 -152.67511 90.014694C -152.54437 90.33372 -151.53072 93.06989 -151.75003 93.33589L-151.75003 93.33589L-151.75 93.336z" stroke="none" fill="#FF7043" fill-rule="nonzero" />
        <path transform="matrix(-0.92441 0.34028 0.37508 0.83865 -210.88 377.24)"  d="M-151.75 93.336C -151.97884 93.6136 -154.9902 93.304085 -155.3467 93.255775C -155.68834 93.20949 -158.56479 92.71924 -158.6855 92.39629C -158.81151 92.05931 -157.0377 89.606094 -156.8177 89.321495C -156.6068 89.04877 -154.744 86.802795 -154.404 86.859695C -154.04918 86.919075 -152.81151 89.68179 -152.67511 90.014694C -152.54437 90.33372 -151.53072 93.06989 -151.75003 93.33589L-151.75003 93.33589L-151.75 93.336z" stroke="none" fill="#FF7043" fill-rule="nonzero" />
        <path transform="matrix(-1 -0 0 1 0 0)"  d="M33.561 430.28L64.179 430.28L64.179 436.6262L33.561 436.6262z" stroke="none" fill="#26C6DA" fill-rule="nonzero" />
        <path transform="matrix(-0.63338 0.34028 0.25699 0.83865 -153.78 409.97)"  d="M-151.75 93.336C -151.97884 93.6136 -154.9902 93.304085 -155.3467 93.255775C -155.68834 93.20949 -158.56479 92.71924 -158.6855 92.39629C -158.81151 92.05931 -157.0377 89.606094 -156.8177 89.321495C -156.6068 89.04877 -154.744 86.802795 -154.404 86.859695C -154.04918 86.919075 -152.81151 89.68179 -152.67511 90.014694C -152.54437 90.33372 -151.53072 93.06989 -151.75003 93.33589L-151.75003 93.33589L-151.75 93.336z" stroke="none" fill="#26C6DA" fill-rule="nonzero" />
        <path transform="matrix(0.63338 0.34028 -0.25699 0.83865 55.984 409.97)"  d="M-151.75 93.336C -151.97884 93.6136 -154.9902 93.304085 -155.3467 93.255775C -155.68834 93.20949 -158.56479 92.71924 -158.6855 92.39629C -158.81151 92.05931 -157.0377 89.606094 -156.8177 89.321495C -156.6068 89.04877 -154.744 86.802795 -154.404 86.859695C -154.04918 86.919075 -152.81151 89.68179 -152.67511 90.014694C -152.54437 90.33372 -151.53072 93.06989 -151.75003 93.33589L-151.75003 93.33589L-151.75 93.336z" stroke="none" fill="#26C6DA" fill-rule="nonzero" />
        <path transform="matrix(-1 -0 0 1 0 0)"  d="M78.571 430.28L123.257996 430.28L123.257996 436.6262L78.571 436.6262z" stroke="none" fill="#FF7043" fill-rule="nonzero" />
        <path transform="matrix(-0.92441 0.34028 0.37508 0.83865 -254.04 409.97)"  d="M-151.75 93.336C -151.97884 93.6136 -154.9902 93.304085 -155.3467 93.255775C -155.68834 93.20949 -158.56479 92.71924 -158.6855 92.39629C -158.81151 92.05931 -157.0377 89.606094 -156.8177 89.321495C -156.6068 89.04877 -154.744 86.802795 -154.404 86.859695C -154.04918 86.919075 -152.81151 89.68179 -152.67511 90.014694C -152.54437 90.33372 -151.53072 93.06989 -151.75003 93.33589L-151.75003 93.33589L-151.75 93.336z" stroke="none" fill="#FF7043" fill-rule="nonzero" />
        <path transform="matrix(0.92441 0.34028 -0.37508 0.83865 52.121 409.97)"  d="M-151.75 93.336C -151.97884 93.6136 -154.9902 93.304085 -155.3467 93.255775C -155.68834 93.20949 -158.56479 92.71924 -158.6855 92.39629C -158.81151 92.05931 -157.0377 89.606094 -156.8177 89.321495C -156.6068 89.04877 -154.744 86.802795 -154.404 86.859695C -154.04918 86.919075 -152.81151 89.68179 -152.67511 90.014694C -152.54437 90.33372 -151.53072 93.06989 -151.75003 93.33589L-151.75003 93.33589L-151.75 93.336z" stroke="none" fill="#FF7043" fill-rule="nonzero" />
		<g transform="matrix(1 0 0 1 -707.27 -0)">
            <path d="M1066.5 462.1L1178.92 464.6417L1188.1626 552.6157L1056.8026 552.6157L1066.5 462.1z" stroke="none" fill="#F2F2F2" fill-rule="nonzero" />
            <path d="M1066.5 462.1L1063.5632 489.49L1181.5232 489.49L1178.9125 464.642L1066.5024 462.0995L1066.5 462.1z" stroke="none" fill="#CCCCCC" fill-rule="nonzero" />
            <path transform="matrix(1 0 -0 -1 0 0)"  d="M868.27 -460.038C 868.27 -472.8245 878.6355 -483.19 891.422 -483.19L891.422 -483.19L1353.598 -483.19C 1366.3845 -483.19 1376.75 -472.8245 1376.75 -460.038L1376.75 -460.038L1376.75 -172.48203C 1376.75 -159.69553 1366.3845 -149.33002 1353.598 -149.33002L1353.598 -149.33002L891.422 -149.33002C 878.6355 -149.33002 868.27 -159.69553 868.27 -172.48203L868.27 -172.48203L868.27 -460.038z" stroke="none" fill="#FFFFFF" fill-rule="evenodd" />
            <path d="M868.2 142.27L868.2 436.63L1376.8301 436.63L1376.8301 142.27002L868.2 142.27zM880.189 157.48201L1362.629 157.48201L1297.928 399.932L936.38794 375.751z" stroke="none" fill="#333333" fill-rule="evenodd" />
            <path d="M868.21 147.039C 868.21 132.50342 879.99347 120.72 894.52905 120.72L894.52905 120.72L1350.481 120.72C 1365.0166 120.72 1376.8 132.50342 1376.8 147.039L1376.8 147.039L1376.8 234.561C 1376.8 249.09659 1365.0166 260.88 1350.481 260.88L1350.481 260.88L894.52905 260.88C 879.99347 260.88 868.21 249.09659 868.21 234.561L868.21 234.561L868.21 147.039z" stroke="none" fill="#333333" fill-rule="nonzero" />
            <path d="M888.77 143.08L1356.25 143.08L1356.25 412.44L888.77 412.44z" stroke="none" fill="#ECECEC" fill-rule="nonzero" />
            <path d="M1018.9 543.14246C 1018.9 541.0148 1020.6248 539.29 1022.7525 539.29L1022.7525 539.29L1222.2175 539.29C 1224.3452 539.29 1226.0701 541.0148 1226.0701 543.14246L1226.0701 543.14246L1226.0701 548.7655C 1226.0701 550.8931 1224.3452 552.618 1222.2175 552.618L1222.2175 552.618L1022.7525 552.618C 1020.6248 552.618 1018.9 550.8931 1018.9 548.7655L1018.9 548.7655L1018.9 543.14246z" stroke="none" fill="#FFFFFF" fill-rule="nonzero" />
            <path d="M1135.571 460.5C 1135.571 464.10947 1134.2949 467.19034 1131.7426 469.74258C 1129.1903 472.2949 1126.1095 473.57104 1122.5 473.571C 1118.8906 473.57104 1115.8097 472.2949 1113.2574 469.74258C 1110.7051 467.19034 1109.429 464.10947 1109.429 460.5C 1109.429 456.89056 1110.7051 453.8097 1113.2574 451.25742C 1115.8097 448.70514 1118.8906 447.42902 1122.5 447.429C 1126.1095 447.42902 1129.1903 448.70514 1131.7426 451.25742C 1134.2949 453.8097 1135.571 456.89056 1135.571 460.5C 1135.571 460.6521 1135.5684 460.80417 1135.563 460.95618" stroke="none" fill="#333333" fill-rule="nonzero" />
            <path d="M922.58 143.08L1322.43 143.08L1322.43 412.44L922.58 412.44z" stroke="none" fill="#FFFFFF" fill-rule="nonzero" />
            <path d="M929.04 150.91L1316.14 150.91L1316.14 215.87201L929.04 215.87201z" stroke="none" fill="#66BB6A" fill-rule="nonzero" />
            <path d="M929.04 222.01L1316.14 222.01L1316.14 238.51999L929.04 238.51999z" stroke="none" fill="#64B5F6" fill-rule="nonzero" />
            <path d="M932.38 224.12L972.33704 224.12L972.33704 236.39L932.38 236.39z" stroke="none" fill="#1E88E5" fill-rule="nonzero" />
            <path d="M975.49 224.12L1015.447 224.12L1015.447 236.39L975.49 236.39z" stroke="none" fill="#1E88E5" fill-rule="nonzero" />
            <path d="M1019.2 224.12L1070.483 224.12L1070.483 236.39L1019.2 236.39z" stroke="none" fill="#1E88E5" fill-rule="nonzero" />
            <path d="M1074.4 224.12L1112.155 224.12L1112.155 236.39L1074.4 236.39z" stroke="none" fill="#1E88E5" fill-rule="nonzero" />
            <path d="M1114.9 224.12L1166.183 224.12L1166.183 236.39L1114.9 236.39z" stroke="none" fill="#1E88E5" fill-rule="nonzero" />
            <path d="M929.04 244.04L1073.0499 244.04L1073.0499 370.66998L929.04 370.66998z" stroke="none" fill="#64B5F6" fill-rule="nonzero" />
            <path d="M1222.3 244.04L1316.1731 244.04L1316.1731 406.53L1222.3 406.53z" stroke="none" fill="#F06292" fill-rule="nonzero" />
            <path d="M1260.4 249.45L1249.703 260.147L1236.49 327.477L1222.293 350.791L1222.293 406.533L1236.027 406.533L1300.671 374.66998C 1300.671 374.66998 1313.2571 326.218 1313.2571 323.701C 1313.2571 321.184 1260.4 249.44899 1260.4 249.44899L1260.4 249.44899L1260.4 249.45z" stroke="none" fill="#D81B60" fill-rule="evenodd" />
            <path d="M929.04 376.18L960.92896 376.18L960.92896 406.641L929.04 406.641z" stroke="none" fill="#64B5F6" fill-rule="nonzero" />
            <path d="M966.42 376.18L998.30896 376.18L998.30896 406.641L966.42 406.641z" stroke="none" fill="#64B5F6" fill-rule="nonzero" />
            <path d="M1003.8 376.18L1035.689 376.18L1035.689 406.641L1003.8 406.641z" stroke="none" fill="#64B5F6" fill-rule="nonzero" />
            <path d="M1041.2 376.18L1073.089 376.18L1073.089 406.641L1041.2 406.641z" stroke="none" fill="#64B5F6" fill-rule="nonzero" />
            <path d="M1081 244.41L1165.948 244.41L1165.948 252.59021L1081 252.59021z" stroke="none" fill="#999999" fill-rule="nonzero" />
            <path d="M1081.7 256.37L1154.063 256.37L1154.063 258.887L1081.7 258.887z" stroke="none" fill="#999999" fill-rule="nonzero" />
            <path d="M1082.6 276.19L1127.276 276.19L1127.276 282.4824L1082.6 282.4824z" stroke="none" fill="#AED581" fill-rule="nonzero" />
            <path d="M1082.6 286.89L1119.725 286.89L1119.725 293.1824L1082.6 293.1824z" stroke="none" fill="#AED581" fill-rule="nonzero" />
            <path d="M1082.6 296.95L1119.725 296.95L1119.725 303.2424L1082.6 303.2424z" stroke="none" fill="#AED581" fill-rule="nonzero" />
            <path d="M1082.6 307.02L1114.6909 307.02L1114.6909 313.31238L1082.6 313.31238z" stroke="none" fill="#AED581" fill-rule="nonzero" />
            <path d="M1082.6 317.09L1114.6909 317.09L1114.6909 323.3824L1082.6 323.3824z" stroke="none" fill="#AED581" fill-rule="nonzero" />
            <path d="M1082.6 327.79L1119.725 327.79L1119.725 334.0824L1082.6 334.0824z" stroke="none" fill="#AED581" fill-rule="nonzero" />
            <path d="M1082.6 338.8L1126.333 338.8L1126.333 345.09238L1082.6 345.09238z" stroke="none" fill="#AED581" fill-rule="nonzero" />
            <path d="M1082.6 348.24L1126.333 348.24L1126.333 354.53238L1082.6 354.53238z" stroke="none" fill="#AED581" fill-rule="nonzero" />
            <path d="M1132.7 276.19L1134.8843 276.19L1134.8843 282.4824L1132.7 282.4824z" stroke="none" fill="#AED581" fill-rule="nonzero" />
            <path d="M1132.7 286.2L1134.8843 286.2L1134.8843 292.4924L1132.7 292.4924z" stroke="none" fill="#AED581" fill-rule="nonzero" />
            <path d="M1132.7 296.43L1134.8843 296.43L1134.8843 302.72238L1132.7 302.72238z" stroke="none" fill="#AED581" fill-rule="nonzero" />
            <path d="M1132.7 306L1134.8843 306L1134.8843 312.2924L1132.7 312.2924z" stroke="none" fill="#AED581" fill-rule="nonzero" />
            <path d="M1132.7 316.46L1134.8843 316.46L1134.8843 322.75238L1132.7 322.75238z" stroke="none" fill="#AED581" fill-rule="nonzero" />
            <path d="M1132.7 327.36L1134.8843 327.36L1134.8843 333.65237L1132.7 333.65237z" stroke="none" fill="#AED581" fill-rule="nonzero" />
            <path d="M1132.7 338.7L1134.8843 338.7L1134.8843 344.9924L1132.7 344.9924z" stroke="none" fill="#AED581" fill-rule="nonzero" />
            <path d="M1132.7 348.05L1134.8843 348.05L1134.8843 354.34238L1132.7 354.34238z" stroke="none" fill="#AED581" fill-rule="nonzero" />
            <path d="M1144.7 276.19L1204.0599 276.19L1204.0599 282.4824L1144.7 282.4824z" stroke="none" fill="#AED581" fill-rule="nonzero" />
            <path d="M1144.5 286.89L1181.625 286.89L1181.625 293.1824L1144.5 293.1824z" stroke="none" fill="#AED581" fill-rule="nonzero" />
            <path d="M1144.7 296.95L1211.1919 296.95L1211.1919 303.2424L1144.7 303.2424z" stroke="none" fill="#AED581" fill-rule="nonzero" />
            <path d="M1144.5 307.02L1157.236 307.02L1157.236 313.31238L1144.5 313.31238z" stroke="none" fill="#AED581" fill-rule="nonzero" />
            <path d="M1144.9 317.09L1157.4141 317.09L1157.4141 323.3824L1144.9 323.3824z" stroke="none" fill="#AED581" fill-rule="nonzero" />
            <path d="M1144.2 327.79L1164.6399 327.79L1164.6399 334.0824L1144.2 334.0824z" stroke="none" fill="#AED581" fill-rule="nonzero" />
            <path d="M1144.5 338.8L1188.233 338.8L1188.233 345.09238L1144.5 345.09238z" stroke="none" fill="#AED581" fill-rule="nonzero" />
            <path d="M1144.7 348.24L1160.846 348.24L1160.846 354.53238L1144.7 354.53238z" stroke="none" fill="#AED581" fill-rule="nonzero" />
            <path d="M1100.2 376.55L1211.8899 376.55L1211.8899 382.84238L1100.2 382.84238z" stroke="none" fill="#AED581" fill-rule="nonzero" />
            <path d="M1082.6 387.88L1211.9099 387.88L1211.9099 394.1724L1082.6 394.1724z" stroke="none" fill="#AED581" fill-rule="nonzero" />
            <path d="M1082.6 397.95L1188.94 397.95L1188.94 404.2424L1082.6 404.2424z" stroke="none" fill="#AED581" fill-rule="nonzero" />
            <path d="M1068.5 270.21L1047.736 274.6143L996.76697 306.7063L972.855 298.5266L929.084 319.6906L929.084 370.6636L1073.104 370.6636L1073.104 270.5636L1068.5044 270.21008L1068.5 270.21z" stroke="none" fill="#42A5F5" fill-rule="evenodd" />
            <path d="M1293.7 266.44L1255.3169 363.344L1292.1859 406.533L1316.116 406.533L1316.116 282.313L1293.7 266.43597L1293.7 266.44z" stroke="none" fill="#E91E63" fill-rule="evenodd" />
            <path d="M1231.4 289.72L1222.2379 300.146L1222.2379 406.536L1307.246 406.536L1231.4 289.726L1231.4 289.72z" stroke="none" fill="#EC407A" fill-rule="evenodd" />
            <path d="M959.43 384.55L954.951 385.50006L943.956 392.42267L938.7978 390.65817L929.3557 395.22357L929.3557 406.21957L960.4217 406.21957L960.4217 384.6266L959.4295 384.5503L959.43 384.55z" stroke="none" fill="#42A5F5" fill-rule="evenodd" />
            <path d="M981.78 383.95L966.41705 394.276L966.41705 406.641L998.30804 406.641L998.30804 391.94998L981.78107 383.94998L981.78 383.95z" stroke="none" fill="#42A5F5" fill-rule="evenodd" />
            <path d="M1035.7 379.29L1019.55194 389.765L1014.83325 389.765C 1014.83325 389.765 1008.96796 392.79312 1003.8113 395.3822L1003.8113 395.3822L1003.8113 406.6362L1035.7003 406.6362L1035.7003 379.2902L1035.7 379.29z" stroke="none" fill="#42A5F5" fill-rule="evenodd" />
            <path d="M1316.1 164.58L1286.1329 174.5702L1200.5569 182.121L1126.9338 172.6815L1060.2349 186.5255L1013.67084 171.4235L928.99884 189.8295L928.99884 215.8725L1316.0989 215.8725L1316.0989 164.5795L1316.1 164.58z" stroke="none" fill="#4CAF50" fill-rule="evenodd" />
		</g>
	</g>
</g>
</svg>