<?xml version="1.0" standalone="no"?>
<!DOCTYPE svg PUBLIC "-//W3C//DTD SVG 1.0//EN" "http://www.w3.org/TR/2001/REC-SVG-20010904/DTD/svg10.dtd">
<svg xmlns="http://www.w3.org/2000/svg" xmlns:xlink="http://www.w3.org/1999/xlink" id="body_1" width="240" height="160">

<g transform="matrix(0.20000002 0 0 0.20000002 0 0)">
	<g transform="matrix(1 0 0 1 82.857 -20.934)">
        <path d="M-82.857 20.934L1117.143 20.934L1117.143 820.934L-82.857 820.934z" stroke="none" fill="#81D4FA" fill-rule="nonzero" />
		<g transform="matrix(2.815 0 0 2.815 1490.3 -1608.5)">
			<g transform="matrix(1 0 0 1 -624.49 -26.865)">
                <path d="M215.28 862.72L342.29 862.72C 342.97903 862.72 343.79102 862.1155 343.53372 861.4764L343.53372 861.4764L337.31763 846.0404C 337.06042 845.4013 334.43192 844.7968 333.74304 844.7968L333.74304 844.7968L223.83304 844.7968C 223.1441 844.7968 220.51584 845.40137 220.25844 846.0404L220.25844 846.0404L214.04243 861.4764C 213.78511 862.1155 214.59715 862.72 215.28604 862.72L215.28604 862.72L215.28 862.72z" stroke="none" fill="#1A1A1A" fill-rule="nonzero" />
                <path d="M268.5 808.47L289.057 808.47L289.057 848.04895C 282.6139 850.728 275.915 851.13654 268.5 848.04895L268.5 848.04895L268.5 808.47z" stroke="none" fill="#333333" fill-rule="nonzero" />
                <path d="M287.15 808.47L289.06268 808.47L289.06268 847.79095C 288.68423 848.2612 287.92688 848.8793 287.1327 848.88684L287.1327 848.88684L287.15 808.47z" stroke="none" fill="#212121" fill-rule="nonzero" />
                <path d="M215.28 862.72L342.29 862.72C 342.97903 862.72 343.79102 862.5938 343.53372 862.4604L343.53372 862.4604L337.31763 859.2381C 337.06042 859.1047 334.43192 858.9785 333.74304 858.9785L333.74304 858.9785L223.83304 858.9785C 223.1441 858.9785 220.51584 859.1047 220.25844 859.2381L220.25844 859.2381L214.04243 862.4604C 213.78511 862.5938 214.59715 862.72 215.28604 862.72L215.28604 862.72L215.28 862.72z" stroke="none" fill="#424242" fill-rule="nonzero" />
                <path transform="matrix(1 0 -0 -1 0 0)"  d="M135.2 -813.113C 135.2 -819.91 140.71002 -825.42 147.507 -825.42L147.507 -825.42L410.06302 -825.42C 416.86 -825.42 422.37 -819.91 422.37 -813.113L422.37 -813.113L422.37 -660.247C 422.37 -653.45 416.86 -647.94 410.06302 -647.94L410.06302 -647.94L147.507 -647.94C 140.71002 -647.94 135.2 -653.45 135.2 -660.247L135.2 -660.247L135.2 -813.113z" stroke="none" fill="#FFFFFF" fill-rule="nonzero" />
			</g>
            <path d="M-484.12 610.89L-207.5 610.89L-207.5 775.75L-484.12 775.75z" stroke="none" fill="#B2DFDB" fill-rule="nonzero" />
            <path d="M-459.8 612.75L-231.62999 612.75L-231.62999 775.74L-459.8 775.74z" stroke="none" fill="#FFFFFF" fill-rule="nonzero" />
            <path d="M-459.8 612.75L-231.62999 612.75L-231.62999 652.886L-459.8 652.886z" stroke="none" fill="#FFCA28" fill-rule="nonzero" />
            <path d="M-459.8 757.2L-231.62999 757.2L-231.62999 775.742L-459.8 775.742z" stroke="none" fill="#FFCA28" fill-rule="nonzero" />
            <path d="M-489.34 606.02L-489.34 783.33L-202.09 783.33L-202.09 606.02L-489.34 606.02zM-482.5691 615.1834L-210.1091 615.1834L-210.1091 773.4334L-482.5691 773.4334L-482.5691 615.1834z" stroke="none" fill="#4D4D4D" fill-rule="nonzero" />
            <path transform="matrix(0.59285 -0.15477 0.15477 0.59285 -667.08 293.02)"  d="M227.61 756.47L191.627 766.1117L165.285 739.7697L174.9267 703.78674L210.9097 694.145L237.2517 720.487L227.61 756.47z" stroke="none" fill="#FFCA28" fill-rule="nonzero" />
            <path transform="matrix(0.59285 -0.15477 0.15477 0.59285 -624.38 318)"  d="M227.61 756.47L191.627 766.1117L165.285 739.7697L174.9267 703.78674L210.9097 694.145L237.2517 720.487L227.61 756.47z" stroke="none" fill="#FFCA28" fill-rule="nonzero" />
            <path transform="matrix(0.59285 -0.15477 0.15477 0.59285 -579.87 292.43)"  d="M227.61 756.47L191.627 766.1117L165.285 739.7697L174.9267 703.78674L210.9097 694.145L237.2517 720.487L227.61 756.47z" stroke="none" fill="#FFCA28" fill-rule="nonzero" />
            <path transform="matrix(0.59285 -0.15477 0.15477 0.59285 -535.15 318)"  d="M227.61 756.47L191.627 766.1117L165.285 739.7697L174.9267 703.78674L210.9097 694.145L237.2517 720.487L227.61 756.47z" stroke="none" fill="#FFCA28" fill-rule="nonzero" />
            <path transform="matrix(0.59285 -0.15477 0.15477 0.59285 -490.4 293.02)"  d="M227.61 756.47L191.627 766.1117L165.285 739.7697L174.9267 703.78674L210.9097 694.145L237.2517 720.487L227.61 756.47z" stroke="none" fill="#FFCA28" fill-rule="nonzero" />
            <path transform="matrix(0.50009 -0.13055 0.13055 0.50009 -630.72 355.88)"  d="M227.61 756.47L191.627 766.1117L165.285 739.7697L174.9267 703.78674L210.9097 694.145L237.2517 720.487L227.61 756.47z" stroke="none" fill="#FFFFFF" fill-rule="nonzero" />
            <path transform="matrix(0.50009 -0.13055 0.13055 0.50009 -588.03 380.86)"  d="M227.61 756.47L191.627 766.1117L165.285 739.7697L174.9267 703.78674L210.9097 694.145L237.2517 720.487L227.61 756.47z" stroke="none" fill="#FFFFFF" fill-rule="nonzero" />
            <path transform="matrix(0.50009 -0.13055 0.13055 0.50009 -543.52 355.28)"  d="M227.61 756.47L191.627 766.1117L165.285 739.7697L174.9267 703.78674L210.9097 694.145L237.2517 720.487L227.61 756.47z" stroke="none" fill="#FFFFFF" fill-rule="nonzero" />
            <path transform="matrix(0.50009 -0.13055 0.13055 0.50009 -498.8 380.86)"  d="M227.61 756.47L191.627 766.1117L165.285 739.7697L174.9267 703.78674L210.9097 694.145L237.2517 720.487L227.61 756.47z" stroke="none" fill="#FFFFFF" fill-rule="nonzero" />
            <path transform="matrix(0.50009 -0.13055 0.13055 0.50009 -454.05 355.88)"  d="M227.61 756.47L191.627 766.1117L165.285 739.7697L174.9267 703.78674L210.9097 694.145L237.2517 720.487L227.61 756.47z" stroke="none" fill="#FFFFFF" fill-rule="nonzero" />
			<g transform="matrix(1 0 0 1 -624.96 -27.185)">
                <path d="M277.19 707.62C 270.3319 707.6036 264.082 713.5185 263.76102 720.38C 263.26324 726.7269 267.75513 733.09 273.97803 734.584C 280.11203 736.24097 287.18402 733.0338 289.81702 727.21027C 292.62222 721.4382 290.74615 713.7673 285.3688 710.1603C 283.002 708.47906 280.0925 707.58105 277.1908 707.61975L277.1908 707.61975L277.19 707.62z" stroke="none" fill="#FFFFFF" fill-rule="nonzero" />
                <path d="M290.083 721.31C 290.083 724.8041 288.8477 727.7864 286.377 730.257C 283.90637 732.72766 280.92404 733.963 277.43 733.963C 273.93597 733.963 270.9536 732.72766 268.48297 730.257C 266.01233 727.7864 264.77698 724.8041 264.77698 721.31C 264.77698 717.81604 266.01233 714.8337 268.48297 712.363C 270.9536 709.89233 273.93597 708.657 277.43 708.657C 280.92404 708.657 283.90637 709.89233 286.377 712.363C 288.8477 714.8337 290.083 717.81604 290.083 721.31C 290.083 721.4573 290.08044 721.6045 290.0753 721.7516" stroke="none" fill="#F06292" fill-rule="nonzero" />
                <path d="M280.23 733.67C 274.2412 734.8667 267.93402 731.6692 265.67603 725.9948C 263.41794 720.32043 265.5351 713.84283 270.70862 710.59784C 275.88223 707.3524 282.63562 708.26556 286.76163 712.76825L286.76163 712.76825L277.68082 721.25464L280.23 733.67z" stroke="none" fill="#D32F2F" fill-rule="nonzero" />
                <path d="M279.91 733.72C 273.92108 734.9168 267.932 731.66504 265.674 725.9905C 263.416 720.31616 265.53314 713.83875 270.7066 710.5935C 275.88016 707.34796 282.63367 708.26105 286.7596 712.7639L286.7596 712.7639L277.4306 721.3123L279.91 733.72z" stroke="none" fill="#E53935" fill-rule="nonzero" />
                <path d="M273.75 733.43C 268.7092 731.7824 264.9825 727.0732 264.7882 721.774C 264.5939 716.4743 267.725 711.61597 272.63162 709.60297C 277.5382 707.5906 283.17963 708.8515 286.76163 712.7615L286.76163 712.7615L277.58774 721.2789L273.75 733.43z" stroke="none" fill="#D84315" fill-rule="nonzero" />
                <path d="M273.5 733.34C 268.4593 731.6926 264.9807 727.0766 264.7863 721.77704C 264.5917 716.47723 267.7229 711.6184 272.6297 709.606C 277.5362 707.59375 283.17697 708.8547 286.7597 712.7645L286.7597 712.7645L277.4307 721.3129L273.5 733.34z" stroke="none" fill="#F4511E" fill-rule="nonzero" />
                <path d="M266.54 714.87C 268.97018 710.76074 273.5064 708.3691 278.27002 708.6856C 283.0336 709.00183 287.21365 711.9724 289.079 716.367L289.079 716.367L277.432 721.311L266.54 714.87z" stroke="none" fill="#CDDC39" fill-rule="nonzero" />
                <path d="M266.54 714.87C 268.97018 710.76074 273.5064 708.3691 278.27002 708.6856C 283.0336 709.00183 287.21365 711.9724 289.079 716.367L289.079 716.367L277.432 721.311L266.54 714.87z" stroke="none" fill="#CDDC39" fill-rule="nonzero" />
                <path d="M266.54 714.87C 268.97018 710.76074 273.5064 708.3691 278.27002 708.6856C 283.0336 709.00183 287.21365 711.9724 289.079 716.367L289.079 716.367L277.432 721.311L266.54 714.87z" stroke="none" fill="#CDDC39" fill-rule="nonzero" />
                <path d="M266.54 714.87C 268.97018 710.76074 273.5064 708.3691 278.27002 708.6856C 283.0336 709.00183 287.21365 711.9724 289.079 716.367L289.079 716.367L277.432 721.311L266.54 714.87z" stroke="none" fill="#CDDC39" fill-rule="nonzero" />
                <path d="M266.54 714.87C 268.97018 710.76074 273.5064 708.3691 278.27002 708.6856C 283.0336 709.00183 287.21365 711.9724 289.079 716.367L289.079 716.367L277.432 721.311L266.54 714.87z" stroke="none" fill="#CDDC39" fill-rule="nonzero" />
                <path d="M266.54 714.87C 268.97018 710.76074 273.5064 708.3691 278.27002 708.6856C 283.0336 709.00183 287.21365 711.9724 289.079 716.367L289.079 716.367L277.432 721.311L266.54 714.87z" stroke="none" fill="#CDDC39" fill-rule="nonzero" />
                <path d="M266.54 714.87C 268.97018 710.76074 273.5064 708.3691 278.27002 708.6856C 283.0336 709.00183 287.21365 711.9724 289.079 716.367L289.079 716.367L277.432 721.311L266.54 714.87z" stroke="none" fill="#CDDC39" fill-rule="nonzero" />
                <path d="M266.54 714.87C 268.97018 710.76074 273.5064 708.3691 278.27002 708.6856C 283.0336 709.00183 287.21365 711.9724 289.079 716.367L289.079 716.367L277.432 721.311L266.54 714.87z" stroke="none" fill="#CDDC39" fill-rule="nonzero" />
                <path d="M266.54 714.87C 268.97018 710.76074 273.5064 708.3691 278.27002 708.6856C 283.0336 709.00183 287.21365 711.9724 289.079 716.367L289.079 716.367L277.432 721.311L266.54 714.87z" stroke="none" fill="#CDDC39" fill-rule="nonzero" />
                <path d="M266.12 715.61C 268.5502 711.5008 273.50488 708.37256 278.268 708.68896C 283.0315 709.0054 287.2114 711.9759 289.077 716.37036L289.077 716.37036L276.96 721.899L266.12 715.61z" stroke="none" fill="#E64A19" fill-rule="nonzero" />
                <path d="M266.32 715.15C 268.7502 711.04083 273.5033 708.3701 278.267 708.6865C 283.0305 709.0029 287.2104 711.97345 289.076 716.3679L289.076 716.3679L277.39798 721.43604L266.32 715.15z" stroke="none" fill="#C0CA33" fill-rule="nonzero" />
                <path d="M275.85 708.76C 279.39072 708.4378 283.3421 709.5761 285.96802 711.9735C 288.5934 714.3708 290.0891 717.7621 290.0891 721.3174L290.0891 721.3174L277.2821 721.3393L275.85 708.76z" stroke="none" fill="#AFB42B" fill-rule="nonzero" />
                <path d="M276.29 708.71C 279.8306 708.3878 283.3435 709.57 285.9689 711.96735C 288.5943 714.3646 290.0772 718.21155 290.0772 721.76685L290.0772 721.76685L277.48022 721.5963L276.29 708.71z" stroke="none" fill="#EC407A" fill-rule="nonzero" />
                <path d="M276.29 708.71C 279.83066 708.38776 283.3435 709.56995 285.9689 711.96735C 288.59436 714.3646 290.09006 717.7559 290.09 721.3112L290.09 721.3112L277.437 721.3112L276.29 708.71z" stroke="none" fill="#CDDC39" fill-rule="nonzero" />
                <path d="M282.366 721.31C 282.366 722.6786 281.88214 723.8467 280.91443 724.8144C 279.94672 725.7821 278.77856 726.266 277.41 726.266C 276.04144 726.266 274.8733 725.7821 273.90558 724.8144C 272.93787 723.8467 272.45404 722.6786 272.454 721.31C 272.45404 719.9414 272.93787 718.7733 273.90558 717.8056C 274.8733 716.8379 276.04144 716.354 277.41 716.354C 278.77856 716.354 279.94672 716.8379 280.91443 717.8056C 281.88214 718.7733 282.366 719.9414 282.366 721.31C 282.366 721.3677 282.365 721.4253 282.36298 721.483" stroke="none" fill="#FFFFFF" fill-rule="nonzero" />
			</g>
			<g transform="matrix(0.084695 0 0 0.04984 -393.88 670.97)">
                <path d="M-470.23 457.93L-470.23 401.012L-423.258 350.115L-423.258 470.51498L-470.23 457.93z" stroke="none" fill="#B3B3B3" fill-rule="nonzero" />
                <path d="M-479.32 457.85L-479.32 400.595L-526.292 349.396L-526.292 470.516L-479.32 457.85z" stroke="none" fill="#B3B3B3" fill-rule="nonzero" />
                <path d="M-427.29 455.36L-522.749 455.36L-595.98505 529.503L-519.718 613.954L-424.25903 613.954L-353.04303 530.11096L-427.29 455.36z" stroke="none" fill="#B3B3B3" fill-rule="nonzero" />
                <path d="M-427.29 455.36L-474.638 455.36L-471.7809 613.94995L-424.2589 613.94995L-353.0429 530.10693L-427.29 455.36z" stroke="none" fill="#B3B3B3" fill-rule="nonzero" />
                <path d="M-486.38998 535.92C -486.39 539.7556 -487.7461 543.02954 -490.45828 545.7417C -493.17047 548.4539 -496.4444 549.81 -500.28 549.81C -504.11563 549.81 -507.38953 548.4539 -510.1017 545.7417C -512.8139 543.02954 -514.17 539.7556 -514.17 535.92C -514.17 532.0844 -512.8139 528.8105 -510.1017 526.09827C -507.38953 523.3861 -504.11563 522.02997 -500.28 522.02997C -496.4444 522.02997 -493.17047 523.3861 -490.45828 526.09827C -487.7461 528.8105 -486.39 532.0844 -486.38998 535.92C -486.39 536.0816 -486.39282 536.24316 -486.39847 536.4047" stroke="none" fill="#B3B3B3" fill-rule="nonzero" />
                <path transform="matrix(1 0 0 1 52.023 0)"  d="M-486.38998 535.92C -486.39 539.7556 -487.7461 543.02954 -490.45828 545.7417C -493.17047 548.4539 -496.4444 549.81 -500.28 549.81C -504.11563 549.81 -507.38953 548.4539 -510.1017 545.7417C -512.8139 543.02954 -514.17 539.7556 -514.17 535.92C -514.17 532.0844 -512.8139 528.8105 -510.1017 526.09827C -507.38953 523.3861 -504.11563 522.02997 -500.28 522.02997C -496.4444 522.02997 -493.17047 523.3861 -490.45828 526.09827C -487.7461 528.8105 -486.39 532.0844 -486.38998 535.92C -486.39 536.0816 -486.39282 536.24316 -486.39847 536.4047" stroke="none" fill="#B3B3B3" fill-rule="nonzero" />
                <path transform="matrix(0.7089 0 0 0.56364 -117.94 257.6)"  d="M-486.38998 535.92C -486.39 539.7556 -487.7461 543.02954 -490.45828 545.7417C -493.17047 548.4539 -496.4444 549.81 -500.28 549.81C -504.11563 549.81 -507.38953 548.4539 -510.1017 545.7417C -512.8139 543.02954 -514.17 539.7556 -514.17 535.92C -514.17 532.0844 -512.8139 528.8105 -510.1017 526.09827C -507.38953 523.3861 -504.11563 522.02997 -500.28 522.02997C -496.4444 522.02997 -493.17047 523.3861 -490.45828 526.09827C -487.7461 528.8105 -486.39 532.0844 -486.38998 535.92C -486.39 536.0816 -486.39282 536.24316 -486.39847 536.4047" stroke="none" fill="#B3B3B3" fill-rule="nonzero" />
                <path transform="matrix(0.3 0 0 0.3 -355.88 370.73)"  d="M-486.38998 535.92C -486.39 539.7556 -487.7461 543.02954 -490.45828 545.7417C -493.17047 548.4539 -496.4444 549.81 -500.28 549.81C -504.11563 549.81 -507.38953 548.4539 -510.1017 545.7417C -512.8139 543.02954 -514.17 539.7556 -514.17 535.92C -514.17 532.0844 -512.8139 528.8105 -510.1017 526.09827C -507.38953 523.3861 -504.11563 522.02997 -500.28 522.02997C -496.4444 522.02997 -493.17047 523.3861 -490.45828 526.09827C -487.7461 528.8105 -486.39 532.0844 -486.38998 535.92C -486.39 536.0816 -486.39282 536.24316 -486.39847 536.4047" stroke="none" fill="#B3B3B3" fill-rule="nonzero" />
                <path transform="matrix(0.3 0 0 0.3 -303.6 370.98)"  d="M-486.38998 535.92C -486.39 539.7556 -487.7461 543.02954 -490.45828 545.7417C -493.17047 548.4539 -496.4444 549.81 -500.28 549.81C -504.11563 549.81 -507.38953 548.4539 -510.1017 545.7417C -512.8139 543.02954 -514.17 539.7556 -514.17 535.92C -514.17 532.0844 -512.8139 528.8105 -510.1017 526.09827C -507.38953 523.3861 -504.11563 522.02997 -500.28 522.02997C -496.4444 522.02997 -493.17047 523.3861 -490.45828 526.09827C -487.7461 528.8105 -486.39 532.0844 -486.38998 535.92C -486.39 536.0816 -486.39282 536.24316 -486.39847 536.4047" stroke="none" fill="#B3B3B3" fill-rule="nonzero" />
			</g>
            <path d="M-449 686.28L-434.836 677.9462L-420.672 686.28C -420.47626 686.3952 -420.2621 686.4628 -420.2621 686.68994L-420.2621 686.68994L-420.2621 703.02295C -420.2621 703.25006 -420.44492 703.43286 -420.672 703.43286L-420.672 703.43286L-434.836 711.51404L-449 703.43286C -449.19724 703.3203 -449.4099 703.25006 -449.4099 703.02295L-449.4099 703.02295L-449.4099 686.68994C -449.4099 686.4628 -449.22708 686.28 -449 686.28z" stroke="none" fill="#FFEB3B" fill-rule="nonzero" />
            <path d="M-445.24 696.43L-438.8054 698.4292L-430.2039 691.5008L-425.32968 694.76196C -425.03995 694.9558 -420.26807 689.1896 -420.26807 689.4167L-420.26807 689.4167L-420.26807 703.0317C -420.26807 703.2588 -420.4592 703.4242 -420.79166 703.6202L-420.79166 703.6202L-434.84265 711.9017L-448.79965 703.56006C -449.1309 703.36206 -449.4173 703.25885 -449.4173 703.03174L-449.4173 703.03174L-449.4173 699.3331C -449.4173 699.106 -445.6058 696.31683 -445.24078 696.43024L-445.24078 696.43024L-445.24 696.43z" stroke="none" fill="#00CCFF" fill-rule="nonzero" />
            <path transform="matrix(-0.75791 0.65235 0.90064 0.43456 0 0)"  d="M894.05 260.025C 894.05 259.78476 894.24475 259.59 894.485 259.59L894.485 259.59L894.71967 259.59C 894.9599 259.59 895.15466 259.78476 895.15466 260.025L895.15466 260.025L895.15466 265.0157C 895.15466 265.25595 894.9599 265.45068 894.71967 265.45068L894.71967 265.45068L894.485 265.45068C 894.24475 265.45068 894.05 265.25595 894.05 265.0157L894.05 265.0157L894.05 260.025z" stroke="none" fill="#FFFFFF" fill-rule="nonzero" />
            <path d="M-445.2 695.68C -445.31845 695.6938 -445.4397 695.7339 -445.53583 695.7977L-445.53583 695.7977L-450.23782 698.919L-450.23782 700.1565C -450.17734 700.1364 -450.11957 700.1098 -450.0689 700.0761L-450.0689 700.0761L-444.44952 696.3458C -444.25723 696.21814 -444.23962 696.0461 -444.4103 695.96L-444.4103 695.96L-444.88086 695.72253C -444.96616 695.67944 -445.08167 695.66644 -445.2001 695.6798L-445.2001 695.6798L-445.2 695.68z" stroke="none" fill="#FFFFFF" fill-rule="nonzero" />
            <path d="M-440.4138 698.36C -440.4138 697.8453 -439.70468 697.428 -438.83 697.428C -437.9553 697.428 -437.2462 697.8453 -437.2462 698.36C -437.2462 698.8747 -437.9553 699.292 -438.83 699.292C -439.70468 699.292 -440.4138 698.8747 -440.4138 698.36" stroke="none" fill="#FFFFFF" fill-rule="nonzero" />
            <path transform="matrix(0.94196 0.33571 -0.75711 0.65329 0 0)"  d="M278.12 914.8502C 278.12 914.6347 278.2947 914.46 278.51022 914.46L278.51022 914.46L279.0283 914.46C 279.24377 914.46 279.4185 914.6347 279.4185 914.8502L279.4185 914.8502L279.4185 925.8948C 279.4185 926.1103 279.24377 926.28503 279.0283 926.28503L279.0283 926.28503L278.51022 926.28503C 278.2947 926.28503 278.12 926.1103 278.12 925.8948L278.12 925.8948L278.12 914.8502z" stroke="none" fill="#FFFFFF" fill-rule="nonzero" />
            <path transform="matrix(-0.91132 0.41169 0.80692 0.59066 0 0)"  d="M932.21 520.5831C 932.21 520.366 932.38605 520.19 932.60315 520.19L932.60315 520.19L933.1045 520.19C 933.3216 520.19 933.4976 520.366 933.4976 520.5831L933.4976 520.5831L933.4976 525.0931C 933.4976 525.3102 933.3216 525.4862 933.1045 525.4862L933.1045 525.4862L932.60315 525.4862C 932.38605 525.4862 932.21 525.3102 932.21 525.0931L932.21 525.0931L932.21 520.5831z" stroke="none" fill="#FFFFFF" fill-rule="nonzero" />
            <path d="M-419.6 687.33C -419.6989 687.34595 -419.78516 687.3822 -419.83728 687.43896L-419.83728 687.43896L-425.70197 693.81854C -425.8169 693.9434 -425.72537 694.11316 -425.49762 694.19904L-425.49762 694.19904L-424.8689 694.4359C -424.6409 694.5219 -424.3649 694.49054 -424.25012 694.3656L-424.25012 694.3656L-419.90463 689.6386L-419.59998 687.33L-419.6 687.33z" stroke="none" fill="#FFFFFF" fill-rule="nonzero" />
            <path d="M-443.6575 696.11C -443.6575 696.5415 -443.81006 696.9098 -444.11514 697.21484C -444.42026 697.51996 -444.78854 697.6725 -445.22 697.6725C -445.6515 697.6725 -446.01978 697.51996 -446.32486 697.21484C -446.62997 696.9098 -446.78253 696.5415 -446.7825 696.11C -446.78253 695.6785 -446.62997 695.31024 -446.32486 695.0051C -446.01978 694.7001 -445.6515 694.5475 -445.22 694.5475C -444.78854 694.5475 -444.42026 694.7001 -444.11514 695.0051C -443.81006 695.31024 -443.6575 695.6785 -443.6575 696.11C -443.6575 696.1282 -443.65784 696.14636 -443.65845 696.1645" stroke="none" fill="#FFFFFF" fill-rule="nonzero" />
            <path d="M-444.0816 696.11C -444.0816 696.4244 -444.19275 696.6927 -444.41504 696.915C -444.63733 697.13727 -444.90567 697.2484 -445.22 697.2484C -445.53436 697.2484 -445.80267 697.13727 -446.02496 696.915C -446.24725 696.6927 -446.3584 696.4244 -446.3584 696.11C -446.3584 695.79565 -446.24725 695.52734 -446.02496 695.305C -445.80267 695.08276 -445.53436 694.97156 -445.22 694.97156C -444.90567 694.97156 -444.63733 695.08276 -444.41504 695.305C -444.19275 695.52734 -444.0816 695.79565 -444.0816 696.11C -444.0816 696.1233 -444.08185 696.13654 -444.0823 696.1497" stroke="none" fill="#29B6F6" fill-rule="nonzero" />
            <path d="M-437.3275 698.62C -437.32755 699.0515 -437.4801 699.4198 -437.78516 699.72485C -438.09027 700.02997 -438.45856 700.1825 -438.89 700.1825C -439.32153 700.1825 -439.68982 700.02997 -439.99487 699.72485C -440.3 699.4198 -440.4525 699.0515 -440.4525 698.62C -440.4525 698.18854 -440.3 697.82025 -439.99487 697.51514C -439.68982 697.2101 -439.32153 697.0575 -438.89 697.0575C -438.45856 697.0575 -438.09027 697.2101 -437.78516 697.51514C -437.4801 697.82025 -437.32755 698.18854 -437.3275 698.62C -437.32755 698.6382 -437.32785 698.6564 -437.32846 698.6745" stroke="none" fill="#FFFFFF" fill-rule="nonzero" />
            <path d="M-437.75162 698.62C -437.75162 698.9344 -437.86276 699.2027 -438.08505 699.425C -438.30734 699.6473 -438.57568 699.7584 -438.89 699.7584C -439.2044 699.7584 -439.47272 699.6473 -439.69498 699.425C -439.9173 699.2027 -440.02844 698.9344 -440.0284 698.62C -440.02844 698.30566 -439.9173 698.03735 -439.69498 697.815C -439.47272 697.5928 -439.2044 697.48157 -438.89 697.48157C -438.57568 697.48157 -438.30734 697.5928 -438.08505 697.815C -437.86276 698.03735 -437.75162 698.30566 -437.75162 698.62C -437.75162 698.6333 -437.75186 698.64655 -437.75232 698.6597" stroke="none" fill="#29B6F6" fill-rule="nonzero" />
            <path d="M-428.6275 691.25C -428.6275 691.6815 -428.78006 692.0498 -429.08514 692.35486C -429.39026 692.66 -429.75854 692.8125 -430.19 692.8125C -430.6215 692.8125 -430.98978 692.66 -431.29486 692.35486C -431.59998 692.0498 -431.75253 691.6815 -431.7525 691.25C -431.75253 690.81854 -431.59998 690.45026 -431.29486 690.14514C -430.98978 689.8401 -430.6215 689.6875 -430.19 689.6875C -429.75854 689.6875 -429.39026 689.8401 -429.08514 690.14514C -428.78006 690.45026 -428.6275 690.81854 -428.6275 691.25C -428.6275 691.2682 -428.62784 691.2864 -428.62845 691.3045" stroke="none" fill="#FFFFFF" fill-rule="nonzero" />
            <path d="M-429.0516 691.25C -429.05164 691.5644 -429.16278 691.8327 -429.38504 692.055C -429.60736 692.2773 -429.87567 692.3884 -430.19 692.3884C -430.50436 692.3884 -430.7727 692.2773 -430.99496 692.055C -431.2173 691.8327 -431.32843 691.5644 -431.3284 691.25C -431.32843 690.93567 -431.2173 690.66736 -430.99496 690.445C -430.7727 690.2228 -430.50436 690.1116 -430.19 690.1116C -429.87567 690.1116 -429.60736 690.2228 -429.38504 690.445C -429.16278 690.66736 -429.05164 690.93567 -429.0516 691.25C -429.05164 691.2633 -429.05188 691.27655 -429.0523 691.28973" stroke="none" fill="#29B6F6" fill-rule="nonzero" />
            <path d="M-423.9575 694.85C -423.95752 695.2815 -424.11005 695.6498 -424.41513 695.95483C -424.72025 696.25995 -425.08853 696.4125 -425.52 696.4125C -425.95148 696.4125 -426.31976 696.25995 -426.62485 695.95483C -426.92996 695.6498 -427.08252 695.2815 -427.0825 694.85C -427.08252 694.4185 -426.92996 694.05023 -426.62485 693.7451C -426.31976 693.44006 -425.95148 693.2875 -425.52 693.2875C -425.08853 693.2875 -424.72025 693.44006 -424.41513 693.7451C -424.11005 694.05023 -423.95752 694.4185 -423.9575 694.85C -423.95752 694.86816 -423.95782 694.88635 -423.95844 694.9045" stroke="none" fill="#FFFFFF" fill-rule="nonzero" />
            <path d="M-424.3816 694.85C -424.38162 695.16437 -424.49277 695.4327 -424.71503 695.65497C -424.93735 695.87726 -425.20566 695.9884 -425.52 695.9884C -425.83435 695.9884 -426.10266 695.87726 -426.32495 695.65497C -426.54724 695.4327 -426.6584 695.16437 -426.6584 694.85C -426.6584 694.53564 -426.54724 694.2673 -426.32495 694.045C -426.10266 693.8227 -425.83435 693.71155 -425.52 693.71155C -425.20566 693.71155 -424.93735 693.8227 -424.71503 694.045C -424.49277 694.2673 -424.38162 694.53564 -424.3816 694.85C -424.38162 694.8633 -424.38184 694.87646 -424.3823 694.8897" stroke="none" fill="#29B6F6" fill-rule="nonzero" />
			<g transform="matrix(0.14216 0 0 0.14216 -450.35 674.73)">
                <path d="M1269.4 142.8161C 1269.4 140.54283 1271.2429 138.7 1273.5161 138.7L1273.5161 138.7L1292.9609 138.7C 1295.2341 138.7 1297.077 140.54283 1297.077 142.8161L1297.077 142.8161L1297.077 209.45189C 1297.077 211.72516 1295.2341 213.568 1292.9609 213.568L1292.9609 213.568L1273.5161 213.568C 1271.2429 213.568 1269.4 211.72516 1269.4 209.45189L1269.4 209.45189L1269.4 142.8161z" stroke="none" fill="#FFFFFF" fill-rule="nonzero" />
                <path d="M1308.2 114.172195C 1308.2 110.978775 1310.7887 108.39 1313.9822 108.39L1313.9822 108.39L1330.0947 108.39C 1333.2882 108.39 1335.877 110.978775 1335.877 114.172195L1335.877 114.172195L1335.877 207.7778C 1335.877 210.97122 1333.2882 213.56 1330.0947 213.56L1330.0947 213.56L1313.9822 213.56C 1310.7887 213.56 1308.2 210.97122 1308.2 207.7778L1308.2 207.7778L1308.2 114.172195z" stroke="none" fill="#FFFFFF" fill-rule="nonzero" />
                <path d="M1346.9 94.6201C 1346.9 91.83156 1349.1605 89.571 1351.9491 89.571L1351.9491 89.571L1369.528 89.571C 1372.3164 89.571 1374.577 91.83156 1374.577 94.6201L1374.577 94.6201L1374.577 208.5119C 1374.577 211.30045 1372.3164 213.561 1369.528 213.561L1369.528 213.561L1351.9491 213.561C 1349.1605 213.561 1346.9 211.30045 1346.9 208.5119L1346.9 208.5119L1346.9 94.6201z" stroke="none" fill="#FFFFFF" fill-rule="nonzero" />
                <path d="M1388.4 59.1876C 1388.4 56.44131 1390.6263 54.215 1393.3727 54.215L1393.3727 54.215L1411.1044 54.215C 1413.8507 54.215 1416.077 56.44131 1416.077 59.1876L1416.077 59.1876L1416.077 208.5924C 1416.077 211.3387 1413.8507 213.565 1411.1044 213.565L1411.1044 213.565L1393.3727 213.565C 1390.6263 213.565 1388.4 211.3387 1388.4 208.5924L1388.4 208.5924L1388.4 59.1876z" stroke="none" fill="#FFFFFF" fill-rule="nonzero" />
			</g>
            <path d="M-268.95 693.8051C -268.95 693.48193 -268.68802 693.22 -268.36487 693.22L-268.36487 693.22L-265.60056 693.22C -265.2774 693.22 -265.0154 693.48193 -265.0154 693.8051L-265.0154 693.8051L-265.0154 703.27783C -265.0154 703.601 -265.2774 703.863 -265.60056 703.863L-265.60056 703.863L-268.36487 703.863C -268.68802 703.863 -268.95 703.601 -268.95 703.27783L-268.95 703.27783L-268.95 693.8051z" stroke="none" fill="#3F51B5" fill-rule="nonzero" />
            <path d="M-263.44 689.732C -263.44 689.278 -263.072 688.91 -262.618 688.91L-262.618 688.91L-260.3274 688.91C -259.8734 688.91 -259.5054 689.278 -259.5054 689.732L-259.5054 689.732L-259.5054 703.04C -259.5054 703.49396 -259.8734 703.862 -260.3274 703.862L-260.3274 703.862L-262.618 703.862C -263.072 703.862 -263.44 703.49396 -263.44 703.04L-263.44 703.04L-263.44 689.732z" stroke="none" fill="#3F51B5" fill-rule="nonzero" />
            <path d="M-257.93 686.95776C -257.93 686.56134 -257.6086 686.24 -257.2122 686.24L-257.2122 686.24L-254.71318 686.24C -254.31676 686.24 -253.99539 686.56134 -253.99539 686.95776L-253.99539 686.95776L-253.99539 703.14923C -253.99539 703.54565 -254.31676 703.867 -254.71318 703.867L-254.71318 703.867L-257.2122 703.867C -257.6086 703.867 -257.93 703.54565 -257.93 703.14923L-257.93 703.14923L-257.93 686.95776z" stroke="none" fill="#3F51B5" fill-rule="nonzero" />
            <path d="M-252.05 681.91693C -252.05 681.5265 -251.73352 681.21 -251.34311 681.21L-251.34311 681.21L-248.8223 681.21C -248.4319 681.21 -248.1154 681.5265 -248.1154 681.91693L-248.1154 681.91693L-248.1154 703.1561C -248.1154 703.5465 -248.4319 703.86304 -248.8223 703.86304L-248.8223 703.86304L-251.34311 703.86304C -251.73352 703.86304 -252.05 703.5465 -252.05 703.1561L-252.05 703.1561L-252.05 681.91693z" stroke="none" fill="#3F51B5" fill-rule="nonzero" />
            <path d="M-299.00958 715.41C -299.00958 717.4259 -299.72235 719.14667 -301.14783 720.57214C -302.57333 721.9977 -304.29407 722.71045 -306.31 722.7104C -308.32596 722.71045 -310.0467 721.9977 -311.47217 720.57214C -312.89767 719.14667 -313.6104 717.4259 -313.6104 715.41C -313.6104 713.39404 -312.89767 711.67334 -311.47217 710.2478C -310.0467 708.8223 -308.32596 708.1096 -306.31 708.10956C -304.29407 708.1096 -302.57333 708.8223 -301.14783 710.2478C -299.72235 711.67334 -299.00958 713.39404 -299.00958 715.41C -299.00958 715.495 -299.01108 715.5799 -299.01404 715.66473" stroke="none" fill="#673AB7" fill-rule="nonzero" fill-opacity="0.6392157" />
            <path d="M-297.3996 724.24C -297.3996 726.256 -298.11237 727.9767 -299.53784 729.40216C -300.96335 730.82764 -302.68408 731.5404 -304.7 731.5404C -306.71597 731.5404 -308.4367 730.82764 -309.86218 729.40216C -311.2877 727.9767 -312.00043 726.256 -312.00043 724.24C -312.00043 722.22406 -311.2877 720.50336 -309.86218 719.0778C -308.4367 717.65234 -306.71597 716.9396 -304.7 716.9396C -302.68408 716.9396 -300.96335 717.65234 -299.53784 719.0778C -298.11237 720.50336 -297.3996 722.22406 -297.3996 724.24C -297.3996 724.32495 -297.4011 724.4099 -297.40405 724.49475" stroke="none" fill="#FF0000" fill-rule="nonzero" fill-opacity="0.6627451" />
            <path d="M-290.8296 719.26C -290.8296 721.276 -291.54236 722.9967 -292.96783 724.4222C -294.39334 725.84766 -296.11407 726.5604 -298.13 726.5604C -300.14597 726.5604 -301.8667 725.84766 -303.29218 724.4222C -304.71768 722.9967 -305.43042 721.276 -305.43042 719.26C -305.43042 717.2441 -304.71768 715.5233 -303.29218 714.09784C -301.8667 712.67236 -300.14597 711.9596 -298.13 711.9596C -296.11407 711.9596 -294.39334 712.67236 -292.96783 714.09784C -291.54236 715.5233 -290.8296 717.2441 -290.8296 719.26C -290.8296 719.345 -290.8311 719.42993 -290.83405 719.5148" stroke="none" fill="#4FC3F7" fill-rule="nonzero" fill-opacity="0.6784314" />
			<g transform="matrix(1.0528 0 0 1.0528 -637.58 -66.497)">
                <path d="M239.86 735.52L236.6366 741.103C 237.34608 741.8884 239.2331 745.18524 239.6081 746.28156L239.6081 746.28156L246.04639 746.28143C 245.50624 744.3071 241.14789 736.6987 239.85999 735.52045L239.85999 735.52045L239.86 735.52z" stroke="none" fill="#FFC107" fill-rule="nonzero" />
                <path d="M239.4 735.29C 237.42169 734.77026 228.651 734.7404 226.987 735.2668L226.987 735.2668L230.2105 740.8498C 231.2441 740.628 235.04489 740.64197 236.1808 740.8659L236.1808 740.8659L239.3999 735.2902L239.4 735.29z" stroke="none" fill="#689F38" fill-rule="nonzero" />
                <path d="M246.08 746.8L239.6333 746.79987C 239.30772 747.80707 237.39641 751.0893 236.63431 751.96234L236.63431 751.96234L239.8535 757.53796C 241.2933 756.0829 245.703 748.5049 246.08 746.8z" stroke="none" fill="#03A9F4" fill-rule="nonzero" />
                <path d="M226.56 735.55C 225.12039 737.00476 220.7106 744.5834 220.3336 746.28796L220.3336 746.28796L226.7801 746.28796C 227.10545 745.28094 229.0169 741.99835 229.7789 741.12506L229.7789 741.12506L226.56 735.54956L226.56 735.55z" stroke="none" fill="#F44336" fill-rule="nonzero" />
                <path d="M226.8 746.8L220.3615 746.8C 220.90144 748.774 225.2603 756.38257 226.5482 757.561L226.5482 757.561L229.77141 751.97815C 229.06201 751.1928 227.1752 747.89636 226.79991 746.79974L226.79991 746.79974L226.8 746.8z" stroke="none" fill="#9C27B0" fill-rule="nonzero" />
                <path d="M236.19 752.23C 235.1564 752.4518 231.3558 752.43787 230.21991 752.21387L230.21991 752.21387L227.00061 757.78986C 228.979 758.3096 237.7496 758.33936 239.4136 757.81305L239.4136 757.81305L236.1902 752.22986L236.19 752.23z" stroke="none" fill="#CDDC39" fill-rule="nonzero" />
                <path d="M224.9232 740.83C 224.92322 741.33905 224.74326 741.7735 224.38335 742.13336C 224.02344 742.4933 223.58899 742.6732 223.08 742.6732C 222.57103 742.6732 222.13658 742.4933 221.77666 742.13336C 221.41676 741.7735 221.23682 741.33905 221.2368 740.83C 221.23682 740.32104 221.41676 739.8866 221.77666 739.5267C 222.13658 739.1668 222.57103 738.9868 223.08 738.9868C 223.58899 738.9868 224.02344 739.1668 224.38335 739.5267C 224.74326 739.8866 224.92322 740.32104 224.9232 740.83C 224.92322 740.8515 224.92284 740.8729 224.92207 740.89435" stroke="none" fill="#FFFFFF" fill-rule="nonzero" />
                <path d="M224.3928 740.83C 224.39282 741.19257 224.26465 741.50195 224.00829 741.7583C 223.75195 742.01465 223.44252 742.1428 223.08 742.1428C 222.71748 742.1428 222.40805 742.01465 222.15172 741.7583C 221.89539 741.50195 221.76721 741.19257 221.7672 740.83C 221.76721 740.4675 221.89539 740.1581 222.15172 739.90173C 222.40805 739.6454 222.71748 739.5172 223.08 739.5172C 223.44252 739.5172 223.75195 739.6454 224.00829 739.90173C 224.26465 740.1581 224.39282 740.4675 224.3928 740.83C 224.39282 740.8453 224.39255 740.8606 224.392 740.87585" stroke="none" fill="#F44336" fill-rule="nonzero" />
                <path d="M235.0132 735.07C 235.01321 735.579 234.83325 736.0134 234.47334 736.37335C 234.11343 736.7333 233.67899 736.9132 233.17 736.9132C 232.66101 736.9132 232.22656 736.7333 231.86665 736.37335C 231.50674 736.0134 231.3268 735.579 231.3268 735.07C 231.3268 734.56104 231.50674 734.1266 231.86665 733.76666C 232.22656 733.40674 232.66101 733.2268 233.17 733.2268C 233.67899 733.2268 234.11343 733.40674 234.47334 733.76666C 234.83325 734.1266 235.01321 734.56104 235.0132 735.07C 235.01321 735.09143 235.01283 735.1129 235.01207 735.13434" stroke="none" fill="#FFFFFF" fill-rule="nonzero" />
                <path d="M234.4828 735.07C 234.4828 735.4325 234.35463 735.74194 234.09828 735.9983C 233.84195 736.25464 233.53253 736.3828 233.17 736.3828C 232.8075 736.3828 232.49806 736.25464 232.24171 735.9983C 231.98538 735.74194 231.85721 735.4325 231.8572 735.07C 231.85721 734.7075 231.98538 734.3981 232.24171 734.1417C 232.49806 733.8854 232.8075 733.7572 233.17 733.7572C 233.53253 733.7572 233.84195 733.8854 234.09828 734.1417C 234.35463 734.3981 234.4828 734.7075 234.4828 735.07C 234.4828 735.0853 234.48254 735.1006 234.482 735.11584" stroke="none" fill="#689F38" fill-rule="nonzero" />
                <path d="M244.8932 740.5C 244.89322 741.00903 244.71326 741.4435 244.35335 741.80334C 243.99344 742.16327 243.55899 742.3432 243.05 742.3432C 242.54102 742.3432 242.10657 742.16327 241.74666 741.80334C 241.38675 741.4435 241.2068 741.00903 241.2068 740.5C 241.2068 739.991 241.38675 739.5566 241.74666 739.19666C 242.10657 738.8368 242.54102 738.6568 243.05 738.6568C 243.55899 738.6568 243.99344 738.8368 244.35335 739.19666C 244.71326 739.5566 244.89322 739.991 244.8932 740.5C 244.89322 740.5215 244.89284 740.5429 244.89207 740.56433" stroke="none" fill="#FFFFFF" fill-rule="nonzero" />
                <path d="M244.36281 740.5C 244.36281 740.86255 244.23463 741.17194 243.97829 741.4283C 243.72195 741.68463 243.41254 741.8128 243.05 741.8128C 242.6875 741.8128 242.37807 741.68463 242.12172 741.4283C 241.86539 741.17194 241.73721 740.86255 241.7372 740.5C 241.73721 740.1375 241.86539 739.82806 242.12172 739.5717C 242.37807 739.31537 242.6875 739.1872 243.05 739.1872C 243.41254 739.1872 243.72195 739.31537 243.97829 739.5717C 244.23463 739.82806 244.36281 740.1375 244.36281 740.5C 244.36281 740.51526 244.36255 740.5306 244.362 740.54584" stroke="none" fill="#FFC107" fill-rule="nonzero" />
                <path d="M245.2232 752.45C 245.22322 752.959 245.04327 753.39343 244.68335 753.75336C 244.32346 754.1133 243.889 754.2932 243.38 754.2932C 242.87103 754.2932 242.43658 754.1133 242.07666 753.75336C 241.71677 753.39343 241.5368 752.959 241.5368 752.45C 241.5368 751.94104 241.71677 751.5066 242.07666 751.14667C 242.43658 750.78674 242.87103 750.6068 243.38 750.6068C 243.889 750.6068 244.32346 750.78674 244.68335 751.14667C 245.04327 751.5066 245.22322 751.94104 245.2232 752.45C 245.22322 752.47144 245.22284 752.4929 245.22208 752.51434" stroke="none" fill="#FFFFFF" fill-rule="nonzero" />
                <path d="M244.69281 752.45C 244.69281 752.8125 244.56464 753.12195 244.30829 753.3783C 244.05196 753.63464 243.74252 753.7628 243.38 753.7628C 243.01749 753.7628 242.70807 753.63464 242.45172 753.3783C 242.19539 753.12195 242.06721 752.8125 242.0672 752.45C 242.06721 752.0875 242.19539 751.7781 242.45172 751.5217C 242.70807 751.2654 243.01749 751.1372 243.38 751.1372C 243.74252 751.1372 244.05196 751.2654 244.30829 751.5217C 244.56464 751.7781 244.69281 752.0875 244.69281 752.45C 244.69281 752.46533 244.69254 752.4806 244.692 752.49585" stroke="none" fill="#03A9F4" fill-rule="nonzero" />
                <path d="M235.0132 758.42C 235.01321 758.92896 234.83325 759.3634 234.47334 759.7233C 234.11343 760.08325 233.67899 760.2632 233.17 760.2632C 232.66101 760.2632 232.22656 760.08325 231.86665 759.7233C 231.50674 759.3634 231.3268 758.92896 231.3268 758.42C 231.3268 757.911 231.50674 757.47656 231.86665 757.11664C 232.22656 756.7567 232.66101 756.5768 233.17 756.5768C 233.67899 756.5768 234.11343 756.7567 234.47334 757.11664C 234.83325 757.47656 235.01321 757.911 235.0132 758.42C 235.01321 758.4414 235.01283 758.4629 235.01207 758.4843" stroke="none" fill="#FFFFFF" fill-rule="nonzero" />
                <path d="M234.4828 758.42C 234.4828 758.7825 234.35463 759.0919 234.09828 759.34827C 233.84195 759.6046 233.53253 759.7328 233.17 759.7328C 232.8075 759.7328 232.49806 759.6046 232.24171 759.34827C 231.98538 759.0919 231.85721 758.7825 231.8572 758.42C 231.85721 758.0575 231.98538 757.74805 232.24171 757.4917C 232.49806 757.23535 232.8075 757.1072 233.17 757.1072C 233.53253 757.1072 233.84195 757.23535 234.09828 757.4917C 234.35463 757.74805 234.4828 758.0575 234.4828 758.42C 234.4828 758.4353 234.48254 758.45056 234.482 758.4658" stroke="none" fill="#CDDC39" fill-rule="nonzero" />
                <path d="M224.91321 752.45C 224.91321 752.959 224.73326 753.39343 224.37335 753.75336C 224.01344 754.1133 223.579 754.2932 223.07 754.2932C 222.56104 754.2932 222.12659 754.1133 221.76666 753.75336C 221.40677 753.39343 221.2268 752.959 221.2268 752.45C 221.2268 751.94104 221.40677 751.5066 221.76666 751.14667C 222.12659 750.78674 222.56104 750.6068 223.07 750.6068C 223.579 750.6068 224.01344 750.78674 224.37335 751.14667C 224.73326 751.5066 224.91321 751.94104 224.91321 752.45C 224.91321 752.47144 224.91284 752.4929 224.91208 752.51434" stroke="none" fill="#FFFFFF" fill-rule="nonzero" />
                <path d="M224.38281 752.45C 224.38281 752.8125 224.25464 753.12195 223.99829 753.3783C 223.74197 753.63464 223.43254 753.7628 223.07 753.7628C 222.7075 753.7628 222.39807 753.63464 222.14172 753.3783C 221.88538 753.12195 221.7572 752.8125 221.7572 752.45C 221.7572 752.0875 221.88538 751.7781 222.14172 751.5217C 222.39807 751.2654 222.7075 751.1372 223.07 751.1372C 223.43254 751.1372 223.74197 751.2654 223.99829 751.5217C 224.25464 751.7781 224.38281 752.0875 224.38281 752.45C 224.38281 752.46533 224.38255 752.4806 224.382 752.49585" stroke="none" fill="#9C27B0" fill-rule="nonzero" />
			</g>
            <path d="M-448.42 625.8931C -448.42 624.2953 -447.12473 623 -445.52692 623L-445.52692 623L-396.3131 623C -394.7153 623 -393.42 624.2953 -393.42 625.8931L-393.42 625.8931L-393.42 643.3209C -393.42 644.9187 -394.7153 646.214 -396.3131 646.214L-396.3131 646.214L-445.52692 646.214C -447.12473 646.214 -448.42 644.9187 -448.42 643.3209L-448.42 643.3209L-448.42 625.8931z" stroke="none" fill="#FFA000" fill-rule="nonzero" />
            <path d="M-385.21 625.8931C -385.21 624.2953 -383.9147 623 -382.3169 623L-382.3169 623L-239.89308 623C -238.29527 623 -236.99998 624.2953 -236.99998 625.8931L-236.99998 625.8931L-236.99998 643.3209C -236.99998 644.9187 -238.29527 646.214 -239.89308 646.214L-239.89308 646.214L-382.3169 646.214C -383.9147 646.214 -385.21 644.9187 -385.21 643.3209L-385.21 643.3209L-385.21 625.8931z" stroke="none" fill="#FFA000" fill-rule="nonzero" />
			<g transform="matrix(0.10331 0 0 0.10331 -425.74 734.84)">
                <path d="M817.47 314.87L852.65 279.68L845 272.02L809.82 307.22L817.47 314.87" stroke="none" fill="#456FD8" fill-rule="nonzero" />
			</g>
			<g transform="matrix(0.10331 0 0 0.10331 -425.74 734.84)">
                <path d="M825.12 322.52L860.3 287.33L851.65 278.68L816.47 313.87L825.12 322.52" stroke="none" fill="#567FE5" fill-rule="nonzero" />
			</g>
			<g transform="matrix(0.10331 0 0 0.10331 -425.74 734.84)">
                <path d="M832.76 330.18L867.95 294.98L859.3 286.33L824.12 321.52L832.76 330.18" stroke="none" fill="#3258B6" fill-rule="nonzero" />
			</g>
			<g transform="matrix(0.10331 0 0 0.10331 -425.74 734.84)">
                <path d="M874.06 279.68L860.29297 265.90698C 857.759 263.37198 853.64996 263.37198 851.115 265.90698L851.115 265.90698L874.05896 288.86197C 876.60895 286.32196 876.60895 282.21198 874.069 279.68198L874.069 279.68198L874.06 279.68z" stroke="none" fill="#FF72B1" fill-rule="nonzero" />
			</g>
			<g transform="matrix(0.10331 0 0 0.10331 -425.74 734.84)">
                <path d="M875.06 287.86L852.11597 264.905C 851.694 264.482 851.00995 264.482 850.587 264.905L850.587 264.905L844.998 270.496C 844.576 270.919 844.576 271.604 844.998 272.026L844.998 272.026L867.942 294.982C 868.365 295.404 869.049 295.404 869.471 294.982L869.471 294.982L875.06 289.38998C 875.49 288.96997 875.49 288.28 875.06 287.86z" stroke="none" fill="#C6C6C6" fill-rule="nonzero" />
			</g>
			<g transform="matrix(0.10331 0 0 0.10331 -425.74 734.84)">
                <path d="M809.82 307.22L806 334L832.76 330.18L809.82 307.22" stroke="none" fill="#FAFAFA" fill-rule="nonzero" />
			</g>
			<g transform="matrix(0.10331 0 0 0.10331 -425.74 734.84)">
                <path d="M807.34 323.63L805 335L816.36 332.66L807.34 323.63" stroke="none" fill="#567FE5" fill-rule="nonzero" />
			</g>
			<g transform="matrix(0.12759 0 0 0.12759 -393.03 742.39)">
                <path d="M840 187C 822 187 807 192.908 807 215C 807 218.313 809.687 221 813 221L813 221L867 221C 870.313 221 873 218.313 873 215C 873 192.91 858 187 840 187z" stroke="none" fill="#44B2B6" fill-rule="nonzero" />
                <path d="M835 204L841 195L826 189L835 204" stroke="none" fill="#FFFFFF" fill-rule="nonzero" />
                <path d="M846 204L855 189L840 195L846 204" stroke="none" fill="#FFFFFF" fill-rule="nonzero" />
                <path d="M858 177C 858 181.97057 856.2427 186.21321 852.7279 189.72792C 849.21326 193.24265 844.9706 195 840 195C 835.0294 195 830.7868 193.24265 827.2721 189.72792C 823.7574 186.21321 822 181.97057 822 177C 822 172.02945 823.7574 167.7868 827.2721 164.27208C 830.7868 160.75735 835.0294 159 840 159C 844.9706 159 849.21326 160.75735 852.7279 164.27208C 856.2427 167.7868 858 172.02945 858 177C 858 177.20947 857.99634 177.41885 857.989 177.62819" stroke="none" fill="#F1CDB0" fill-rule="nonzero" />
                <path d="M858.61 173.17C 858.483 172.552 858.32697 171.944 858.141 171.349C 855.74097 163.619 848.531 157.999 840.001 157.999C 839.43695 157.999 838.881 158.03499 838.329 158.083C 837.909 158.12299 837.492 158.17899 837.07996 158.24599C 837.01794 158.25598 836.957 158.26498 836.89594 158.27399C 835.9199 158.44598 834.96893 158.691 834.04694 158.999L834.04694 158.999L833.9509 158.999C 826.74194 161.422 821.48096 168.04199 821.0529 175.961C 822.8889 175.521 824.8059 174.772 826.67694 173.691C 829.85596 171.85599 832.2769 169.437 833.67194 166.999L833.67194 166.999L834.2999 166.999C 837.3909 173.40399 845.70593 177.999 855.49994 177.999C 856.67993 177.999 857.8289 177.91199 858.95996 177.784C 858.97095 177.521 858.99994 177.263 858.99994 176.999C 859.00995 175.689 858.87994 174.409 858.61993 173.16899L858.61993 173.16899L858.61 173.17z" stroke="none" fill="#AB6125" fill-rule="nonzero" />
			</g>
            <path d="M-279.05 764.77765C -279.05 764.3592 -278.7108 764.02 -278.2924 764.02L-278.2924 764.02L-243.9476 764.02C -243.52917 764.02 -243.18999 764.3592 -243.18999 764.77765L-243.18999 764.77765L-243.18999 768.56573C -243.18999 768.98413 -243.52917 769.3233 -243.9476 769.3233L-243.9476 769.3233L-278.2924 769.3233C -278.7108 769.3233 -279.05 768.98413 -279.05 768.56573L-279.05 768.56573L-279.05 764.77765z" stroke="none" fill="#FFA000" fill-rule="nonzero" />
            <path d="M-332.63 764.77765C -332.63 764.3592 -332.2908 764.02 -331.8724 764.02L-331.8724 764.02L-297.52762 764.02C -297.1092 764.02 -296.77002 764.3592 -296.77002 764.77765L-296.77002 764.77765L-296.77002 768.56573C -296.77002 768.98413 -297.1092 769.3233 -297.52762 769.3233L-297.52762 769.3233L-331.8724 769.3233C -332.2908 769.3233 -332.63 768.98413 -332.63 768.56573L-332.63 768.56573L-332.63 764.77765z" stroke="none" fill="#FFA000" fill-rule="nonzero" />
		</g>
	</g>
</g>
</svg>