<?xml version="1.0" standalone="no"?>
<!DOCTYPE svg PUBLIC "-//W3C//DTD SVG 1.0//EN" "http://www.w3.org/TR/2001/REC-SVG-20010904/DTD/svg10.dtd">
<svg xmlns="http://www.w3.org/2000/svg" xmlns:xlink="http://www.w3.org/1999/xlink" id="body_1" width="240" height="166">

<g transform="matrix(0.19965635 0 0 0.19965635 0.20618808 -0)">
	<g transform="matrix(1 0 0 1 -1356.4 46.672)">
        <path d="M1356.4 -46.672L2556.4 -46.672L2556.4 784.758L1356.4 784.758z" stroke="none" fill="#81D4FA" fill-rule="nonzero" />
        <path d="M1867.6 568L2045.9099 572.0315L2060.5698 711.5715L1852.2098 711.5715L1867.6 568z" stroke="none" fill="#F2F2F2" fill-rule="nonzero" />
        <path d="M1867.6 568L1862.9419 611.445L2050.052 611.445L2045.9111 572.032L1867.6011 567.9992L1867.6 568z" stroke="none" fill="#CCCCCC" fill-rule="nonzero" />
        <path transform="matrix(1 0 -0 -1 0 0)"  d="M1553.1 -564.728C 1553.1 -585.00903 1569.541 -601.45 1589.822 -601.45L1589.822 -601.45L2322.898 -601.45C 2343.179 -601.45 2359.62 -585.00903 2359.62 -564.728L2359.62 -564.728L2359.62 -108.612015C 2359.62 -88.33102 2343.179 -71.890015 2322.898 -71.890015L2322.898 -71.890015L1589.822 -71.890015C 1569.541 -71.890015 1553.1 -88.33102 1553.1 -108.612015L1553.1 -108.612015L1553.1 -564.728z" stroke="none" fill="#FFFFFF" fill-rule="evenodd" />
        <path d="M1553 69.793L1553 527.603L2359.76 527.603L2359.76 69.79303L1553 69.793zM1572.017 93.451996L2337.247 93.451996L2234.6172 470.53198L1661.1672 432.92398z" stroke="none" fill="#333333" fill-rule="evenodd" />
        <path d="M1553 68.255C 1553 45.19987 1571.6898 26.51 1594.745 26.51L1594.745 26.51L2317.955 26.51C 2341.0103 26.51 2359.7 45.19987 2359.7 68.255L2359.7 68.255L2359.7 207.075C 2359.7 230.13013 2341.0103 248.81999 2317.955 248.81999L2317.955 248.81999L1594.745 248.81999C 1571.6898 248.81999 1553 230.13013 1553 207.075L1553 207.075L1553 68.255z" stroke="none" fill="#333333" fill-rule="nonzero" />
        <path d="M1585.6 61.982L2327.1 61.982L2327.1 489.222L1585.6 489.222z" stroke="none" fill="#FFFFFF" fill-rule="nonzero" />
        <path d="M1792.1 696.5507C 1792.1 693.17584 1794.8358 690.44 1798.2107 690.44L1798.2107 690.44L2114.5994 690.44C 2117.974 690.44 2120.71 693.17584 2120.71 696.5507L2120.71 696.5507L2120.71 705.4693C 2120.71 708.8442 2117.974 711.58 2114.5994 711.58L2114.5994 711.58L1798.2107 711.58C 1794.8358 711.58 1792.1 708.8442 1792.1 705.4693L1792.1 705.4693L1792.1 696.5507z" stroke="none" fill="#FFFFFF" fill-rule="nonzero" />
        <path d="M1977.1321 565.46C 1977.1322 571.185 1975.1082 576.0716 1971.0598 580.11975C 1967.0117 584.16797 1962.125 586.192 1956.4 586.192C 1950.675 586.192 1945.7886 584.16797 1941.7402 580.11975C 1937.6921 576.0716 1935.668 571.185 1935.668 565.46C 1935.668 559.73505 1937.6921 554.8485 1941.7402 550.8003C 1945.7886 546.75214 1950.675 544.728 1956.4 544.728C 1962.125 544.728 1967.0117 546.75214 1971.0598 550.8003C 1975.1082 554.8485 1977.1322 559.73505 1977.1321 565.46C 1977.1322 565.7013 1977.1279 565.94244 1977.1194 566.18353" stroke="none" fill="#333333" fill-rule="nonzero" />
        <path d="M2261.6 63.077C 2067.61 65.1657 1873.3201 63.31291 1679.2201 64.014496C 1650.826 64.08601 1612.2511 57.825497 1597.4731 85.62949C 1584.0972 109.9005 1595.1599 137.55449 1591.8069 163.4025C 1592.6 259.5445 1589.0964 356.0125 1593.8962 451.95248C 1604.0403 479.29547 1642.0453 482.98648 1670.4463 479.51248C 1875.2563 478.85385 2080.2263 480.91577 2284.9363 478.43707C 2319.3223 471.70197 2325.1863 437.48007 2320.6343 412.40808C 2319.3672 305.49808 2323.4995 198.25809 2318.4526 91.548096C 2311.3652 71.314095 2284.5847 61.944096 2261.5967 63.078094L2261.5967 63.078094L2261.6 63.077z" stroke="none" fill="#FFFFFF" fill-rule="nonzero" />
        <path transform="matrix(3.4906 0 0 2.985 1067.9 -967.34)"  d="M179.72 350.65C 179.72 350.65 179.72 350.65 179.72 350.65L179.72 350.65L329.32 350.65C 329.32 350.65 329.32 350.65 329.32 350.65L329.32 350.65L329.32 472.78998C 329.32 472.78998 329.32 472.78998 329.32 472.78998L329.32 472.78998L179.72 472.78998C 179.72 472.78998 179.72 472.78998 179.72 472.78998L179.72 472.78998L179.72 350.65z" stroke="none" fill="#7E57C2" fill-rule="nonzero" />
        <path d="M1696.9 62.002C 1696.9 62.002 1696.9 62.002 1696.9 62.002L1696.9 62.002L2215.82 62.002C 2215.82 62.002 2215.82 62.002 2215.82 62.002L2215.82 62.002L2215.82 489.01202C 2215.82 489.01202 2215.82 489.01202 2215.82 489.01202L2215.82 489.01202L1696.9 489.01202C 1696.9 489.01202 1696.9 489.01202 1696.9 489.01202L1696.9 489.01202L1696.9 62.002z" stroke="none" fill="#FFFFFF" fill-rule="nonzero" />
        <path d="M1732.5 81.413L2180.18 81.413L2180.18 137.512L1732.5 137.512z" stroke="none" fill="#42A5F5" fill-rule="nonzero" />
        <path d="M1733.1 159.73L1832.064 159.73L1832.064 290.41998L1733.1 290.41998z" stroke="none" fill="#FF8A65" fill-rule="nonzero" />
        <path d="M1848.8 159.73L1947.764 159.73L1947.764 253.125L1848.8 253.125z" stroke="none" fill="#1DE9B6" fill-rule="nonzero" />
        <path d="M1964.5 159.73L2063.464 159.73L2063.464 322.12L1964.5 322.12z" stroke="none" fill="#FFEE58" fill-rule="nonzero" />
        <path d="M2080.2 159.73L2179.164 159.73L2179.164 294.15L2080.2 294.15z" stroke="none" fill="#DCE775" fill-rule="nonzero" />
        <path d="M1733.1 309.46L1832.064 309.46L1832.064 382.132L1733.1 382.132z" stroke="none" fill="#4FC3F7" fill-rule="nonzero" />
        <path d="M1733.1 401.22L1733.1 489.019L1832.065 489.019L1832.065 401.22L1733.1 401.22z" stroke="none" fill="#9FA8DA" fill-rule="nonzero" />
        <path d="M1848.8 272.55L1947.764 272.55L1947.764 365.94498L1848.8 365.94498z" stroke="none" fill="#F48FB1" fill-rule="nonzero" />
        <path d="M1848.8 387.24L1848.8 489.02L1947.7631 489.02L1947.7631 387.24L1848.8 387.24z" stroke="none" fill="#D4E157" fill-rule="nonzero" />
        <path d="M1964.5 340.62L2063.464 340.62L2063.464 456.38998L1964.5 456.38998z" stroke="none" fill="#81D4FA" fill-rule="nonzero" />
        <path d="M1964.5 473.95L1964.5 489.01602L2063.465 489.01602L2063.465 473.95L1964.5001 473.95L1964.5 473.95z" stroke="none" fill="#FFD54F" fill-rule="nonzero" />
        <path d="M2080.2 312.65L2179.164 312.65L2179.164 405.112L2080.2 405.112z" stroke="none" fill="#B39DDB" fill-rule="nonzero" />
        <path d="M2080.2 425.47L2080.2 489.021L2179.165 489.021L2179.165 425.47L2080.2 425.47z" stroke="none" fill="#F06292" fill-rule="nonzero" />
	</g>
</g>
</svg>