<?xml version="1.0" standalone="no"?>
<!DOCTYPE svg PUBLIC "-//W3C//DTD SVG 1.0//EN" "http://www.w3.org/TR/2001/REC-SVG-20010904/DTD/svg10.dtd">
<svg xmlns="http://www.w3.org/2000/svg" xmlns:xlink="http://www.w3.org/1999/xlink" id="body_1" width="240" height="160">

<g transform="matrix(0.20000002 0 0 0.20000002 0 0)">
	<g transform="matrix(1 0 0 1 460 -95.219)">
        <path d="M-460 95.219L740 95.219L740 895.219L-460 895.219z" stroke="none" fill="#81D4FA" fill-rule="nonzero" />
		<g transform="matrix(1.0673 0 0 1.0673 -511.06 -198.03)">
			<g transform="matrix(0.99257 0 0 0.99257 1.7136 2.5706)">
                <path d="M443.87 957.62L781.83997 957.62C 783.6736 957.62 785.83417 956.0114 785.14966 954.31067L785.14966 954.31067L768.60864 913.2347C 767.9239 911.534 760.92975 909.92535 759.09644 909.92535L759.09644 909.92535L466.60645 909.92535C 464.77286 909.92535 457.77905 911.53406 457.09393 913.2347L457.09393 913.2347L440.55292 954.31067C 439.86786 956.01135 442.02872 957.62 443.86203 957.62L443.86203 957.62L443.87 957.62z" stroke="none" fill="#1A1A1A" fill-rule="nonzero" />
                <path d="M585.51 813.27L640.214 813.27L640.214 918.59C 623.068 925.71924 605.24097 926.8062 585.51 918.59L585.51 918.59L585.51 813.27z" stroke="none" fill="#333333" fill-rule="nonzero" />
                <path d="M635.12 813.27L640.2097 813.27L640.2097 917.91003C 639.2024 919.16144 637.18744 920.80615 635.0735 920.82623L635.0735 920.82623L635.12 813.27z" stroke="none" fill="#212121" fill-rule="nonzero" />
                <path transform="matrix(1 0 -0 -1 0 0)"  d="M230.77 -825.62C 230.77 -843.70734 245.43268 -858.37 263.52002 -858.37L263.52002 -858.37L962.19 -858.37C 980.2773 -858.37 994.94 -843.70734 994.94 -825.62L994.94 -825.62L994.94 -418.84C 994.94 -400.7527 980.2773 -386.09 962.19 -386.09L962.19 -386.09L263.52002 -386.09C 245.43268 -386.09 230.77 -400.7527 230.77 -418.84L230.77 -418.84L230.77 -825.62z" stroke="none" fill="#FFFFFF" fill-rule="nonzero" />
                <path d="M244.56 358.98L980.66 358.98L980.66 797.68005L244.56 797.68005z" stroke="none" fill="#FF8A65" fill-rule="nonzero" />
                <path d="M309.27 372.49L916.44995 372.49L916.44995 797.67L309.27 797.67z" stroke="none" fill="#F9F9F9" fill-rule="nonzero" />
                <path d="M471.37 372.49L478.2982 372.49L478.2982 797.67L471.37 797.67z" stroke="none" fill="#CCCCCC" fill-rule="nonzero" />
                <path d="M523.19 651.2634C 523.19 650.0907 524.1407 649.14 525.3134 649.14L525.3134 649.14L818.9766 649.14C 820.14935 649.14 821.1 650.0907 821.1 651.2634L821.1 651.2634L821.1 803.29663C 821.1 804.46936 820.14935 805.42004 818.9766 805.42004L818.9766 805.42004L525.3134 805.42004C 524.1407 805.42004 523.19 804.46936 523.19 803.29663L523.19 803.29663L523.19 651.2634z" stroke="none" fill="#C8E6C9" fill-rule="nonzero" />
                <path d="M230.66 346.02L230.66 817.87L995.06006 817.87L995.06006 346.02L230.66003 346.02L230.66 346.02zM248.67801 370.404L973.718 370.404L973.718 791.524L248.67804 791.524L248.67804 370.404z" stroke="none" fill="#4D4D4D" fill-rule="nonzero" />
                <path d="M443.87 957.62L781.83997 957.62C 783.6736 957.62 785.83417 957.2842 785.14966 956.9292L785.14966 956.9292L768.60864 948.3546C 767.9239 947.99963 760.92975 947.6638 759.09644 947.6638L759.09644 947.6638L466.60645 947.6638C 464.77286 947.6638 457.77905 947.99963 457.09393 948.3546L457.09393 948.3546L440.55292 956.9292C 439.86786 957.2842 442.02872 957.62 443.86203 957.62L443.86203 957.62L443.87 957.62z" stroke="none" fill="#424242" fill-rule="nonzero" />
                <path d="M523.19 476.53342C 523.19 475.3607 524.1407 474.41 525.3134 474.41L525.3134 474.41L818.9766 474.41C 820.14935 474.41 821.1 475.3607 821.1 476.53342L821.1 476.53342L821.1 628.5666C 821.1 629.7393 820.14935 630.69 818.9766 630.69L818.9766 630.69L525.3134 630.69C 524.1407 630.69 523.19 629.7393 523.19 628.5666L523.19 628.5666L523.19 476.53342z" stroke="none" fill="#C8E6C9" fill-rule="nonzero" />
                <path d="M309.27 370.61L916.44995 370.61L916.44995 449.78497L309.27 449.78497z" stroke="none" fill="#66BB6A" fill-rule="nonzero" />
                <path d="M330.71 475.17L447.72 475.17L447.72 517.35504L330.71 517.35504z" stroke="none" fill="#C8E6C9" fill-rule="nonzero" />
                <path d="M330.71 475.17L447.72 475.17L447.72 492.889L330.71 492.889z" stroke="none" fill="#66BB6A" fill-rule="nonzero" />
                <path d="M330.71 530.48L447.72 530.48L447.72 581.707L330.71 581.707z" stroke="none" fill="#C8E6C9" fill-rule="nonzero" />
                <path d="M330.71 527.82L447.72 527.82L447.72 545.539L330.71 545.539z" stroke="none" fill="#66BB6A" fill-rule="nonzero" />
                <path d="M330.71 600.16L447.72 600.16L447.72 673.194L330.71 673.194z" stroke="none" fill="#C8E6C9" fill-rule="nonzero" />
                <path d="M330.71 592.88L447.72 592.88L447.72 610.599L330.71 610.599z" stroke="none" fill="#66BB6A" fill-rule="nonzero" />
                <path d="M330.71 693.77L447.72 693.77L447.72 766.804L330.71 766.804z" stroke="none" fill="#C8E6C9" fill-rule="nonzero" />
                <path d="M330.71 684.27L447.72 684.27L447.72 701.989L330.71 701.989z" stroke="none" fill="#66BB6A" fill-rule="nonzero" />
                <path d="M510.47 487.95L794.51 487.95L794.51 514.695L510.47 514.695z" stroke="none" fill="#66BB6A" fill-rule="nonzero" />
                <path d="M826.98 480.58072C 826.98 479.0229 828.24286 477.76 829.80066 477.76L829.80066 477.76L837.6983 477.76C 839.2561 477.76 840.519 479.0229 840.519 480.58072L840.519 480.58072L840.519 488.4783C 840.519 490.03613 839.2561 491.299 837.6983 491.299L837.6983 491.299L829.80066 491.299C 828.24286 491.299 826.98 490.03613 826.98 488.4783L826.98 488.4783L826.98 480.58072z" stroke="none" fill="#5C6BC0" fill-rule="nonzero" />
                <path d="M826.98 497.6907C 826.98 496.13287 828.24286 494.87 829.80066 494.87L829.80066 494.87L837.6983 494.87C 839.2561 494.87 840.519 496.13287 840.519 497.6907L840.519 497.6907L840.519 505.5883C 840.519 507.14612 839.2561 508.409 837.6983 508.409L837.6983 508.409L829.80066 508.409C 828.24286 508.409 826.98 507.14612 826.98 505.5883L826.98 505.5883L826.98 497.6907z" stroke="none" fill="#4DD0E1" fill-rule="nonzero" />
                <path d="M826.98 514.2407C 826.98 512.68286 828.24286 511.42 829.80066 511.42L829.80066 511.42L837.6983 511.42C 839.2561 511.42 840.519 512.68286 840.519 514.2407L840.519 514.2407L840.519 522.1383C 840.519 523.69617 839.2561 524.959 837.6983 524.959L837.6983 524.959L829.80066 524.959C 828.24286 524.959 826.98 523.69617 826.98 522.1383L826.98 522.1383L826.98 514.2407z" stroke="none" fill="#FF7043" fill-rule="nonzero" />
                <path d="M826.98 658.7607C 826.98 657.2029 828.24286 655.94 829.80066 655.94L829.80066 655.94L837.6983 655.94C 839.2561 655.94 840.519 657.2029 840.519 658.7607L840.519 658.7607L840.519 666.6583C 840.519 668.2161 839.2561 669.479 837.6983 669.479L837.6983 669.479L829.80066 669.479C 828.24286 669.479 826.98 668.2161 826.98 666.6583L826.98 666.6583L826.98 658.7607z" stroke="none" fill="#5C6BC0" fill-rule="nonzero" />
                <path d="M826.98 675.87067C 826.98 674.31287 828.24286 673.05 829.80066 673.05L829.80066 673.05L837.6983 673.05C 839.2561 673.05 840.519 674.31287 840.519 675.87067L840.519 675.87067L840.519 683.7683C 840.519 685.3261 839.2561 686.589 837.6983 686.589L837.6983 686.589L829.80066 686.589C 828.24286 686.589 826.98 685.3261 826.98 683.7683L826.98 683.7683L826.98 675.87067z" stroke="none" fill="#4DD0E1" fill-rule="nonzero" />
                <path d="M826.98 692.42065C 826.98 690.86285 828.24286 689.6 829.80066 689.6L829.80066 689.6L837.6983 689.6C 839.2561 689.6 840.519 690.86285 840.519 692.42065L840.519 692.42065L840.519 700.3183C 840.519 701.8761 839.2561 703.139 837.6983 703.139L837.6983 703.139L829.80066 703.139C 828.24286 703.139 826.98 701.8761 826.98 700.3183L826.98 700.3183L826.98 692.42065z" stroke="none" fill="#FF7043" fill-rule="nonzero" />
                <path d="M540.34 530.36L631.577 530.36L631.577 600.032L540.34 600.032z" stroke="none" fill="#E8F5E9" fill-rule="nonzero" />
                <path d="M613.33 550.29L576.004 570.61096L558.58606 558.99896L540.3381 572.60693L540.3381 600.03094L631.57806 600.03094L631.57806 563.77997L613.3301 550.29L613.33 550.29z" stroke="none" fill="#66BB6A" fill-rule="nonzero" />
                <path d="M643.43 531.28L794.70996 531.28L794.70996 539.96796L643.43 539.96796z" stroke="none" fill="#66BB6A" fill-rule="nonzero" />
                <path d="M643.43 546.49L794.70996 546.49L794.70996 555.1779L643.43 555.1779z" stroke="none" fill="#66BB6A" fill-rule="nonzero" />
                <path d="M643.43 560.74L794.70996 560.74L794.70996 569.4279L643.43 569.4279z" stroke="none" fill="#66BB6A" fill-rule="nonzero" />
                <path d="M643.43 575.95L754.79 575.95L754.79 584.63794L643.43 584.63794z" stroke="none" fill="#66BB6A" fill-rule="nonzero" />
                <path d="M510.47 662.68L794.51 662.68L794.51 689.425L510.47 689.425z" stroke="none" fill="#66BB6A" fill-rule="nonzero" />
                <path d="M540.34 705.08L631.577 705.08L631.577 774.752L540.34 774.752z" stroke="none" fill="#E8F5E9" fill-rule="nonzero" />
                <path d="M613.33 725.01L576.004 745.331L558.58606 733.719L540.3381 747.32697L540.3381 774.751L631.57806 774.751L631.57806 738.5L613.3301 725.01L613.33 725.01z" stroke="none" fill="#66BB6A" fill-rule="nonzero" />
                <path d="M643.43 706L794.70996 706L794.70996 714.6879L643.43 714.6879z" stroke="none" fill="#66BB6A" fill-rule="nonzero" />
                <path d="M643.43 721.21L794.70996 721.21L794.70996 729.89795L643.43 729.89795z" stroke="none" fill="#66BB6A" fill-rule="nonzero" />
                <path d="M643.43 735.47L794.70996 735.47L794.70996 744.1579L643.43 744.1579z" stroke="none" fill="#66BB6A" fill-rule="nonzero" />
                <path d="M643.43 750.67L754.79 750.67L754.79 759.3579L643.43 759.3579z" stroke="none" fill="#66BB6A" fill-rule="nonzero" />
			</g>
		</g>
	</g>
</g>
</svg>